<?xml version="1.0" standalone="no"?>
<!DOCTYPE svg PUBLIC "-//W3C//DTD SVG 1.1//EN" "http://www.w3.org/Graphics/SVG/1.1/DTD/svg11.dtd" >
<svg>
<metadata>
Created by FontForge 20090914 at Wed Jun 20 15:50:54 2018
 By www-data
Copyright &#194;&#169; 2002, The Font Bureau, Inc. All rights reserved.
</metadata>
<defs>
<font id="RelayComp-Black" horiz-adv-x="362" >
  <font-face 
    font-family="RelayComp-Black"
    font-weight="400"
    font-stretch="normal"
    units-per-em="1000"
    panose-1="2 0 6 6 3 0 0 2 0 4"
    ascent="800"
    descent="-200"
    x-height="476"
    cap-height="705"
    bbox="-55 -196 930 940"
    underline-thickness="20"
    underline-position="-123"
    unicode-range="U+0020-U+FB02"
  />
<missing-glyph horiz-adv-x="500" 
 />
    <glyph glyph-name=".notdef" horiz-adv-x="500" 
 />
    <glyph glyph-name="space" unicode=" " horiz-adv-x="176" 
 />
    <glyph glyph-name="exclam" unicode="!" horiz-adv-x="264" 
d="M71 220h125v485h-125v-485zM132 -5c24.667 0 45.334 8.16699 62.001 24.5s25 37.833 25 64.5c0 24 -8.33301 44.333 -25 61s-37.334 25 -62.001 25c-23.333 0 -43.333 -8.33301 -60 -25s-25 -37 -25 -61c0 -26.667 8.33301 -48.167 25 -64.5s36.667 -24.5 60 -24.5z" />
    <glyph glyph-name="quotedbl" unicode="&#x22;" horiz-adv-x="360" 
d="M203 428h113v272h-113v-272zM46 428h113v272h-113v-272z" />
    <glyph glyph-name="numbersign" unicode="#" horiz-adv-x="377" 
d="M40 0h91l22 215h43l-21 -215h92l21 215h75v103h-65l7 63h58v103h-48l22 216h-92l-22 -216h-43l22 216h-92l-22 -216h-74v-103h64l-6 -63h-58v-103h47zM156 310l9 80h55l-9 -80h-55z" />
    <glyph glyph-name="dollar" unicode="$" horiz-adv-x="381" 
d="M154 698c-15.333 -4 -30.002 -9.66797 -44.002 -17.001s-26.167 -17.166 -36.5 -29.499s-18.666 -27.333 -24.999 -45s-9.5 -38.5 -9.5 -62.5c0 -25.333 4.5 -50.5 13.5 -75.5s20.167 -49.667 33.5 -74s28 -47.833 44 -70.5l44 -64.5
c13.333 -20.333 24.5 -39.5 33.5 -57.5s13.5 -34 13.5 -48c0 -13.333 -4 -23.666 -12 -30.999s-21.333 -11 -40 -11s-38.334 2.83301 -59.001 8.5s-36.667 11.5 -48 17.5l-38 -110c17.333 -9.33301 36.333 -16.833 57 -22.5s42.334 -9.16699 65.001 -10.5v-79h86v84
c38 8 68 24.167 90 48.5s33 58.166 33 101.499c0 24 -4.5 48.5 -13.5 73.5s-20.333 49.667 -34 74s-28.5 48.166 -44.5 71.499l-44.5 66c-13.667 20.667 -25 39.834 -34 57.501s-13.5 33.5 -13.5 47.5c0 13.333 4.33301 23.333 13 30s20.334 10 35.001 10
c10 0 21.833 -1.16699 35.5 -3.5s26.167 -5.83301 37.5 -10.5l37 115c-8 4 -20 8.33301 -36 13s-33.667 8 -53 10v81h-86v-87z" />
    <glyph glyph-name="percent" unicode="%" horiz-adv-x="675" 
d="M142 259c40 0 71.167 18 93.5 54s33.5 92 33.5 168c0 76.667 -11.167 133.167 -33.5 169.5s-53.5 54.5 -93.5 54.5s-71.167 -18.167 -93.5 -54.5s-33.5 -92.833 -33.5 -169.5c0 -76 11.167 -132 33.5 -168s53.5 -54 93.5 -54zM176 0h100l222 700h-100zM533 -6
c40 0 71.167 18 93.5 54s33.5 92 33.5 168c0 76.667 -11.167 133.167 -33.5 169.5s-53.5 54.5 -93.5 54.5s-71.167 -18.167 -93.5 -54.5s-33.5 -92.833 -33.5 -169.5c0 -76 11.167 -132 33.5 -168s53.5 -54 93.5 -54zM142 352c-6 0 -10.833 3.66699 -14.5 11
s-6.5 17 -8.5 29s-3.16699 25.667 -3.5 41s-0.5 31 -0.5 47c0 16.667 0.166992 32.667 0.5 48s1.5 29 3.5 41s4.83301 21.667 8.5 29s8.5 11 14.5 11s10.833 -3.66699 14.5 -11s6.5 -17.166 8.5 -29.499s3.16699 -26.333 3.5 -42s0.5 -31.834 0.5 -48.501
s-0.166992 -32.5 -0.5 -47.5s-1.5 -28.333 -3.5 -40s-4.83301 -21 -8.5 -28s-8.5 -10.5 -14.5 -10.5zM533 87c-6 0 -10.833 3.66699 -14.5 11s-6.5 17 -8.5 29s-3.16699 25.667 -3.5 41s-0.5 31 -0.5 47c0 16.667 0.166992 32.667 0.5 48s1.5 29 3.5 41
s4.83301 21.667 8.5 29s8.5 11 14.5 11s10.833 -3.66699 14.5 -11s6.5 -17.166 8.5 -29.499s3.16699 -26.333 3.5 -42s0.5 -31.834 0.5 -48.501s-0.166992 -32.5 -0.5 -47.5s-1.5 -28.333 -3.5 -40s-4.83301 -21 -8.5 -28s-8.5 -10.5 -14.5 -10.5z" />
    <glyph glyph-name="ampersand" unicode="&#x26;" horiz-adv-x="493" 
d="M142 468c-16 -12.667 -31.1689 -27.501 -45.502 -44.501s-26.666 -36.333 -36.999 -58s-18.666 -46.167 -24.999 -73.5s-9.5 -57.666 -9.5 -90.999c0 -40 5 -73.667 15 -101s22.667 -49.166 38 -65.499s32.5 -28.166 51.5 -35.499s37.5 -11 55.5 -11
c25.333 0 49 4.5 71 13.5s41 22.833 57 41.5l17 -43h142l-69 174c27.333 65.333 50.333 149.666 69 252.999l-107 17c-8 -44.667 -16 -83.334 -24 -116.001l-100 251h148v126h-323v-46zM270.998 146.999c-17.333 -23.333 -39.001 -35.001 -65.001 -35.001
c-17.333 0 -30.666 10.5 -39.999 31.5s-14 45.5 -14 73.5c0 30 3.66699 55.833 11 77.5s16.333 39.834 27 54.501z" />
    <glyph glyph-name="quotesingle" unicode="'" horiz-adv-x="215" 
d="M46 428h125v272h-125v-272z" />
    <glyph glyph-name="parenleft" unicode="(" horiz-adv-x="282" 
d="M129 -84l121 45.998c-9.33301 18.667 -19.5 40.667 -30.5 66s-21.167 54.333 -30.5 87s-17 68.667 -23 108s-9 82.333 -9 129s3 89.834 9 129.501s13.667 76 23 109s19.5 62.5 30.5 88.5s21.167 48.333 30.5 67l-121 46c-10 -20.667 -20.833 -44.667 -32.5 -72
s-22.167 -58.666 -31.5 -93.999s-17.166 -75.333 -23.499 -120s-9.5 -94.667 -9.5 -150c0 -56.667 3.16699 -107.5 9.5 -152.5s14.166 -85.5 23.499 -121.5s19.833 -67.5 31.5 -94.5s22.5 -50.833 32.5 -71.5z" />
    <glyph glyph-name="parenright" unicode=")" horiz-adv-x="282" 
d="M155 -84c10 20.667 20.833 44.6689 32.5 72.002s22.167 58.666 31.5 93.999s17.166 75.333 23.499 120s9.5 94.667 9.5 150c0 56.667 -3.16699 107.5 -9.5 152.5s-14.166 85.5 -23.499 121.5s-19.833 67.5 -31.5 94.5s-22.5 50.833 -32.5 71.5l-121 -46
c9.33301 -18.667 19.5 -40.667 30.5 -66s21.167 -54.333 30.5 -87s17 -68.667 23 -108s9 -82.333 9 -129s-3 -90 -9 -130s-13.667 -76.5 -23 -109.5s-19.5 -62.333 -30.5 -88s-21.167 -47.834 -30.5 -66.501z" />
    <glyph glyph-name="asterisk" unicode="*" horiz-adv-x="439" 
d="M290 333l79 58l-79 103l122 37l-28 95l-120 -45l4 131h-97l6 -129l-119 46l-31 -96l122 -36l-78 -104l77 -59l71 108z" />
    <glyph glyph-name="plus" unicode="+" horiz-adv-x="383" 
d="M129 273v-137h124v137h93v117h-93v136h-124v-136h-92v-117h92z" />
    <glyph glyph-name="comma" unicode="," horiz-adv-x="222" 
d="M24 -137h105l66 306h-147z" />
    <glyph glyph-name="hyphen" unicode="-" horiz-adv-x="291" 
d="M37 225h218v134h-218v-134z" />
    <glyph glyph-name="hyphen" unicode="&#xad;" horiz-adv-x="291" 
d="M37 225h218v134h-218v-134z" />
    <glyph glyph-name="period" unicode="." horiz-adv-x="249" 
d="M124 -6c26 0 47.833 8.66699 65.5 26s26.5 40 26.5 68c0 25.333 -8.83301 46.833 -26.5 64.5s-39.5 26.5 -65.5 26.5c-12 0 -23.5 -2.33301 -34.5 -7s-20.5 -11.167 -28.5 -19.5s-14.333 -18 -19 -29s-7 -22.833 -7 -35.5c0 -28 8.66699 -50.667 26 -68
s38.333 -26 63 -26z" />
    <glyph glyph-name="slash" unicode="/" horiz-adv-x="325" 
d="M7 0h124l190 705h-124z" />
    <glyph glyph-name="zero" unicode="0" horiz-adv-x="442" 
d="M221 -6c62.667 0 110.334 29 143.001 87s49 146.667 49 266c0 120.667 -16.333 210.5 -49 269.5s-80.334 88.5 -143.001 88.5s-110.334 -29.5 -143.001 -88.5s-49 -148.833 -49 -269.5c0 -119.333 16.333 -208 49 -266s80.334 -87 143.001 -87zM221 116
c-14 0 -25 6.33301 -33 19s-13.833 29.667 -17.5 51s-6 45.833 -7 73.5s-1.5 56.5 -1.5 86.5s0.5 59 1.5 87s3.33301 52.667 7 74s9.5 38.5 17.5 51.5s19 19.5 33 19.5s25 -6.66699 33 -20s14 -31 18 -53s6.33301 -47.167 7 -75.5s1 -57.5 1 -87.5s-0.333008 -58.5 -1 -85.5
s-3 -51 -7 -72s-10 -37.667 -18 -50s-19 -18.5 -33 -18.5z" />
    <glyph glyph-name="one" unicode="1" horiz-adv-x="301" 
d="M99 0h132v700h-203v-124h71v-576z" />
    <glyph glyph-name="two" unicode="2" horiz-adv-x="378" 
d="M11 0l348.003 0.00195312v120h-165l35 72l44 91.5c13.333 28.333 24.666 55.666 33.999 81.999s16.666 52.5 21.999 78.5s8 53 8 81c0 55.333 -15.333 99.166 -46 131.499s-75.334 48.5 -134.001 48.5c-23.333 0 -47.5 -2.83301 -72.5 -8.5s-48.167 -13.5 -69.5 -23.5
l36 -118c34 13.333 64 20 90 20c24.667 0 41.667 -5.33301 51 -16s14 -25.667 14 -45c0 -34 -11 -75.667 -33 -125l-78 -168l-84 -174v-47z" />
    <glyph glyph-name="three" unicode="3" 
d="M19 -6c48.667 0 93.001 5 133.001 15s74.167 25.667 102.5 47s50.166 48.666 65.499 81.999s23 73 23 119c0 32.667 -5 60.834 -15 84.501s-22 43.5 -36 59.5s-28.667 28.667 -44 38s-28.333 16 -39 20l114 196v45h-309v-124h129l-80 -137v-50
c44.667 -4.66699 80.5 -18.5 107.5 -41.5s40.5 -51.5 40.5 -85.5c0 -18 -2.33301 -35.5 -7 -52.5s-14 -32.167 -28 -45.5s-33.833 -24 -59.5 -32s-59.5 -12 -101.5 -12z" />
    <glyph glyph-name="four" unicode="4" horiz-adv-x="422" 
d="M350 251v454h-107l-233 -478v-81h211v-146h129v146h62v105h-62zM221 251h-95l95 195v-195z" />
    <glyph glyph-name="five" unicode="5" horiz-adv-x="372" 
d="M29 -6c48.667 0 93.001 5.00195 133.001 15.002s74.167 25.667 102.5 47s50.166 48.666 65.499 81.999s23 73 23 119c0 66.667 -17.333 120.667 -52 162s-83.667 69 -147 83l3 74h166v124h-281l-10 -308c33.333 -0.666992 62 -4.83398 86 -12.501s43.667 -17.5 59 -29.5
s26.5 -25.667 33.5 -41s10.5 -31.333 10.5 -48c0 -18 -2.5 -35.333 -7.5 -52s-14.5 -31.667 -28.5 -45s-33.833 -24 -59.5 -32s-59.167 -12 -100.5 -12z" />
    <glyph glyph-name="six" unicode="6" horiz-adv-x="408" 
d="M180 450c11.333 38.667 25.166 74.667 41.499 108s33.833 63.333 52.5 90l-114 70c-19.333 -29.333 -37.166 -61.666 -53.499 -96.999s-30.5 -72.5 -42.5 -111.5s-21.333 -79.333 -28 -121s-10 -83.834 -10 -126.501c0 -50 4.83301 -92 14.5 -126
s22.834 -61.5 39.501 -82.5s36.167 -36.167 58.5 -45.5s46.5 -14 72.5 -14c21.333 0 42.666 3.83301 63.999 11.5s40.5 20.5 57.5 38.5s30.667 42.167 41 72.5s15.5 68.166 15.5 113.499s-4.33301 83 -13 113s-20 53.833 -34 71.5s-29.833 30 -47.5 37
s-35.5 10.5 -53.5 10.5c-11.333 0 -22 -1.16699 -32 -3.5s-19.667 -5.16602 -29 -8.49902zM156 323c8.66699 5.33301 17.666 9.66699 26.999 13s19.333 5 30 5c17.333 0 29.333 -8.33301 36 -25s10 -46.667 10 -90c0 -34.667 -3.16699 -62 -9.5 -82s-19.166 -30 -38.499 -30
c-21.333 0 -36.333 11.333 -45 34s-13 61 -13 115c0 20 1 40 3 60z" />
    <glyph glyph-name="seven" unicode="7" horiz-adv-x="378" 
d="M66 0h135l147 653v47h-330v-124h178z" />
    <glyph glyph-name="eight" unicode="8" horiz-adv-x="425" 
d="M213 -10c30 0 56.666 5.16895 79.999 15.502s43.166 24.666 59.499 42.999s28.833 40.166 37.5 65.499s13 52.666 13 81.999c0 44.667 -8.16699 83.5 -24.5 116.5s-37.166 57.167 -62.499 72.5c19.333 13.333 35.166 32.666 47.499 57.999s18.5 55.666 18.5 90.999
c0 23.333 -3.83301 45.666 -11.5 66.999s-18.667 40 -33 56s-32 28.667 -53 38s-44.833 14 -71.5 14s-50.5 -4.66699 -71.5 -14s-38.667 -22 -53 -38s-25.333 -34.667 -33 -56s-11.5 -43.666 -11.5 -66.999c0 -36 6.5 -66.667 19.5 -92s28.167 -44.666 45.5 -57.999
c-25.333 -15.333 -46.166 -39.333 -62.499 -72s-24.5 -71.334 -24.5 -116.001c0 -29.333 4.33301 -56.666 13 -81.999s21.334 -47.166 38.001 -65.499s36.667 -32.666 60 -42.999s50 -15.5 80 -15.5zM212.999 432.002c-16 0 -27 7.83301 -33 23.5s-9 33.5 -9 53.5s3 38 9 54
s17 24 33 24s26.833 -8 32.5 -24s8.5 -34 8.5 -54s-3 -37.833 -9 -53.5s-16.667 -23.5 -32 -23.5zM212.999 108.002c-21.333 0 -37.333 10.333 -48 31s-16 46.334 -16 77.001c0 30 5.33301 55.167 16 75.5s26.667 30.5 48 30.5c20.667 0 36.167 -10.167 46.5 -30.5
s15.5 -45.5 15.5 -75.5c0 -30.667 -5 -56.334 -15 -77.001s-25.667 -31 -47 -31z" />
    <glyph glyph-name="nine" unicode="9" horiz-adv-x="408" 
d="M228 255c-11.333 -38.667 -25.166 -74.667 -41.499 -108s-33.833 -63.333 -52.5 -90l114 -70c19.333 29.333 37.166 61.666 53.499 96.999s30.5 72.5 42.5 111.5s21.333 79.333 28 121s10 83.834 10 126.501c0 50 -4.83301 92 -14.5 126s-22.834 61.5 -39.501 82.5
s-36.167 36.167 -58.5 45.5s-46.5 14 -72.5 14c-21.333 0 -42.666 -3.83301 -63.999 -11.5s-40.5 -20.5 -57.5 -38.5s-30.667 -42.167 -41 -72.5s-15.5 -68.166 -15.5 -113.499s4.33301 -83 13 -113s20 -53.833 34 -71.5s29.833 -30 47.5 -37s35.5 -10.5 53.5 -10.5
c11.333 0 22 1.16699 32 3.5s19.667 5.16602 29 8.49902zM252 377c-8.66699 -5.33301 -17.666 -9.66699 -26.999 -13s-19.333 -5 -30 -5c-17.333 0 -29.333 8.33301 -36 25s-10 46.667 -10 90c0 34.667 3.16699 62 9.5 82s19.166 30 38.499 30
c21.333 0 36.333 -10.667 45 -32s13 -58.666 13 -111.999c0 -22.667 -1 -44.334 -3 -65.001z" />
    <glyph glyph-name="colon" unicode=":" horiz-adv-x="250" 
d="M124 301c24.667 0 45.334 8.16699 62.001 24.5s25 37.833 25 64.5c0 24 -8.33301 44.333 -25 61s-37.334 25 -62.001 25c-23.333 0 -43.333 -8.33301 -60 -25s-25 -37 -25 -61c0 -26.667 8.33301 -48.167 25 -64.5s36.667 -24.5 60 -24.5zM124 -6
c24.667 0 45.334 8.16699 62.001 24.5s25 37.833 25 64.5c0 24 -8.33301 44.333 -25 61s-37.334 25 -62.001 25c-23.333 0 -43.333 -8.33301 -60 -25s-25 -37 -25 -61c0 -26.667 8.33301 -48.167 25 -64.5s36.667 -24.5 60 -24.5z" />
    <glyph glyph-name="semicolon" unicode=";" horiz-adv-x="250" 
d="M124 301c24.667 0 45.334 8.16699 62.001 24.5s25 37.833 25 64.5c0 24 -8.33301 44.333 -25 61s-37.334 25 -62.001 25c-23.333 0 -43.333 -8.33301 -60 -25s-25 -37 -25 -61c0 -26.667 8.33301 -48.167 25 -64.5s36.667 -24.5 60 -24.5zM37 -126h99l63 290h-139z" />
    <glyph glyph-name="semicolon" unicode="&#x37e;" horiz-adv-x="250" 
d="M124 301c24.667 0 45.334 8.16699 62.001 24.5s25 37.833 25 64.5c0 24 -8.33301 44.333 -25 61s-37.334 25 -62.001 25c-23.333 0 -43.333 -8.33301 -60 -25s-25 -37 -25 -61c0 -26.667 8.33301 -48.167 25 -64.5s36.667 -24.5 60 -24.5zM37 -126h99l63 290h-139z" />
    <glyph glyph-name="less" unicode="&#x3c;" horiz-adv-x="334" 
d="M271 90v159l-92 82l92 83v159l-224 -219v-46z" />
    <glyph glyph-name="equal" unicode="=" horiz-adv-x="322" 
d="M37 348h249v115h-249v-115zM37 167h249v115h-249v-115z" />
    <glyph glyph-name="greater" unicode="&#x3e;" horiz-adv-x="334" 
d="M63 90l224 219v46l-224 218v-159l92 -82l-92 -83v-159z" />
    <glyph glyph-name="question" unicode="?" horiz-adv-x="398" 
d="M99 220l124.997 -0.00390625v62c15.333 5.33301 31.166 13 47.499 23s31.333 23.333 45 40s24.834 37.334 33.501 62.001s13 54.334 13 89.001c0 42 -7.33301 76.833 -22 104.5s-33.167 49.834 -55.5 66.501s-47.166 28.334 -74.499 35.001s-53.666 10 -78.999 10
c-17.333 0 -34 -1 -50 -3s-29.667 -4.66699 -41 -8l11 -120c10.667 1.33301 21 2.5 31 3.5s19.667 1.5 29 1.5c36.667 -0.666992 65.834 -10 87.501 -28s32.5 -42.333 32.5 -73c0 -13.333 -2.16699 -26.5 -6.5 -39.5s-11.5 -25 -21.5 -36s-23.5 -20.5 -40.5 -28.5
s-38.5 -13.667 -64.5 -17v-144zM160.997 -5.00391c24.667 0 45.334 8.16699 62.001 24.5s25 37.833 25 64.5c0 24 -8.33301 44.333 -25 61s-37.334 25 -62.001 25c-23.333 0 -43.333 -8.33301 -60 -25s-25 -37 -25 -61c0 -26.667 8.33301 -48.167 25 -64.5
s36.667 -24.5 60 -24.5z" />
    <glyph glyph-name="at" unicode="@" horiz-adv-x="550" 
d="M314 448c-5.33301 8 -12.5 14.667 -21.5 20s-22.167 8 -39.5 8c-23.333 0 -43.666 -7.83301 -60.999 -23.5s-31.666 -36.334 -42.999 -62.001s-20 -54.667 -26 -87s-9 -65.166 -9 -98.499c0 -48.667 8 -88.167 24 -118.5s41 -45.5 75 -45.5
c14.667 0 29.5 4.33301 44.5 13s29.167 18.667 42.5 30c24.667 -28.667 57.334 -43 98.001 -43c18.667 0 36 2.66699 52 8s29.833 16.166 41.5 32.499s20.834 39.333 27.501 69s10 68.834 10 117.501c0 64.667 -6.16699 121.834 -18.5 171.501s-29.833 91.167 -52.5 124.5
s-49.667 58.5 -81 75.5s-66 25.5 -104 25.5s-72.5 -8.5 -103.5 -25.5s-57.5 -42.167 -79.5 -75.5s-39.167 -74.833 -51.5 -124.5s-18.5 -106.834 -18.5 -171.501c0 -130.667 22.5 -228.834 67.5 -294.501s107.833 -98.5 188.5 -98.5c13.333 0 27.333 1.33301 42 4
s29.167 6.5 43.5 11.5s27.833 10.5 40.5 16.5s23.667 12.667 33 20l-26 48c-19.333 -11.333 -39.166 -21 -59.499 -29s-44.833 -12 -73.5 -12c-34.667 0 -64.334 8.66699 -89.001 26s-44.834 41 -60.501 71s-27.167 65.333 -34.5 106s-11 84.334 -11 131.001
s3.83301 90.5 11.5 131.5s19.5 76.833 35.5 107.5s36 54.834 60 72.501s52.333 26.5 85 26.5s61.167 -8.83301 85.5 -26.5s44.666 -41.834 60.999 -72.501s28.5 -66.5 36.5 -107.5s12 -84.833 12 -131.5c0 -30.667 -0.833008 -56 -2.5 -76s-4.33398 -35.667 -8.00098 -47
s-8.33398 -19.333 -14.001 -24s-12.834 -7 -21.501 -7c-7.33301 0 -13.166 2.33301 -17.499 7s-7.5 10.667 -9.5 18s-3 15.333 -3 24c0 9.33301 0.666992 18 2 26l30 287h-101zM274 148c-3.33301 -2.66699 -8.66797 -4 -16.001 -4c-11.333 0 -18.666 5 -21.999 15
s-5 22.667 -5 38c0 17.333 0.666992 36 2 56s3.83301 38.5 7.5 55.5s8.5 31.167 14.5 42.5s13.667 17 23 17c8.66699 0 15 -1 19 -3z" />
    <glyph glyph-name="A" unicode="A" horiz-adv-x="424" 
d="M149 103h117l24 -103h135l-179 708h-68l-179 -708h126zM241 218h-68l34 184z" />
    <glyph glyph-name="B" unicode="B" horiz-adv-x="411" 
d="M393 200c0 24.667 -2.66504 46.332 -7.99805 64.999s-12.833 34.834 -22.5 48.501s-20.834 25 -33.501 34s-26.334 16.167 -41.001 21.5c23.333 11.333 43 29.833 59 55.5s24 57.834 24 96.501c0 34 -6 62.833 -18 86.5s-29 42.667 -51 57s-48.5 24.666 -79.5 30.999
s-65.5 9.5 -103.5 9.5h-78v-705h88c84 0 149 16.167 195 48.5s69 82.833 69 151.5zM242.002 493.998c0 -24 -5.49902 -43.668 -16.499 -59.001s-29.5 -23.666 -55.5 -24.999v169c27.333 -1.33301 46.166 -10 56.499 -26s15.5 -35.667 15.5 -59zM264.003 218.997
c0 -26.667 -7.33301 -49.5 -22 -68.5s-38.667 -29.167 -72 -30.5v199c30 -1.33301 53.167 -11 69.5 -29s24.5 -41.667 24.5 -71z" />
    <glyph glyph-name="C" unicode="C" horiz-adv-x="346" 
d="M17 353c0 -68 7.83398 -124.833 23.501 -170.5s35.834 -82.334 60.501 -110.001s52.5 -47.334 83.5 -59.001s61.5 -17.5 91.5 -17.5c18.667 0 36.667 2 54 6l-16 125c-11.333 -2 -21.333 -3 -30 -3c-23.333 0 -43.5 5.83301 -60.5 17.5s-31 27.834 -42 48.501
s-19.167 44.834 -24.5 72.501s-8 57.167 -8 88.5c0 32 2.66699 61.667 8 89s13.5 51 24.5 71s25.167 35.833 42.5 47.5s37.666 17.5 60.999 17.5c9.33301 0 19 -1 29 -3l16 130c-17.333 4 -35.333 6 -54 6c-30 0 -60.5 -5.83301 -91.5 -17.5s-58.833 -31.167 -83.5 -58.5
s-44.834 -63.833 -60.501 -109.5s-23.5 -102.5 -23.5 -170.5z" />
    <glyph glyph-name="D" unicode="D" horiz-adv-x="428" 
d="M41 0h45c47.333 0 90.833 6 130.5 18s74 31.667 103 59s51.5 63.333 67.5 108s24 100 24 166s-8 121.5 -24 166.5s-38.5 81.333 -67.5 109s-63.333 47.667 -103 60s-83.167 18.5 -130.5 18.5h-45v-705zM173 136v425.998c37.333 -3.33301 64.333 -23.833 81 -61.5
s25 -88.5 25 -152.5c0 -63.333 -8.33301 -113.666 -25 -150.999s-43.667 -57.666 -81 -60.999z" />
    <glyph glyph-name="E" unicode="E" horiz-adv-x="364" 
d="M41 0h304v120h-173v173h126v126h-126v160h167v126h-298v-705z" />
    <glyph glyph-name="F" unicode="F" horiz-adv-x="351" 
d="M41 0h131v257h132v125h-132v197h167v126h-298v-705z" />
    <glyph glyph-name="G" unicode="G" horiz-adv-x="402" 
d="M17 354c0 -74 8.66602 -134.333 25.999 -181s39.833 -83.5 67.5 -110.5s58.334 -45.5 92.001 -55.5s66.5 -15 98.5 -15c13.333 0 25.833 0.666992 37.5 2s22.834 3 33.501 5v339h-123v-211c-11.333 4 -22.833 11 -34.5 21s-22.334 23.833 -32.001 41.5
s-17.667 39.834 -24 66.501s-9.5 58.667 -9.5 96c0 31.333 3 60.666 9 87.999s15.333 51 28 71s28.5 35.833 47.5 47.5s41.167 17.5 66.5 17.5c5.33301 0 11 -0.333008 17 -1s12.333 -1.66699 19 -3l16 130c-9.33301 2 -18.833 3.66699 -28.5 5s-19.5 2 -29.5 2
c-32.667 0 -65.5 -6 -98.5 -18s-62.667 -31.833 -89 -59.5s-47.833 -64.167 -64.5 -109.5s-25 -101.333 -25 -168z" />
    <glyph glyph-name="H" unicode="H" horiz-adv-x="460" 
d="M41 0h132v294h114v-294h132v705h-132v-280h-114v280h-132v-705z" />
    <glyph glyph-name="I" unicode="I" horiz-adv-x="219" 
d="M44 0h132v705h-132v-705z" />
    <glyph glyph-name="J" unicode="J" horiz-adv-x="301" 
d="M92 -6c19.333 0 39.167 1.66699 59.5 5s38.666 11.5 54.999 24.5s29.833 32.167 40.5 57.5s16 59.666 16 102.999v521h-132v-508c0 -30.667 -4.16699 -50.667 -12.5 -60s-24.166 -14 -47.499 -14c-14 0 -31.333 2 -52 6l-15 -123
c13.333 -3.33301 27.833 -6.16602 43.5 -8.49902s30.5 -3.5 44.5 -3.5z" />
    <glyph glyph-name="K" unicode="K" horiz-adv-x="411" 
d="M180 277l89 -277h137l-137 428l122 277h-118l-100 -224v224h-132v-705h132v261z" />
    <glyph glyph-name="L" unicode="L" horiz-adv-x="349" 
d="M41 0h299v120h-167v585h-132v-705z" />
    <glyph glyph-name="M" unicode="M" horiz-adv-x="546" 
d="M26 0h117l12 295l102 -241h24l102 241l12 -295h125l-31 714h-51l-165 -390l-166 390h-50z" />
    <glyph glyph-name="N" unicode="N" horiz-adv-x="457" 
d="M359 0h57v705h-118v-327l-188 327h-69v-705h118v363z" />
    <glyph glyph-name="O" unicode="O" horiz-adv-x="447" 
d="M224 -6c28 0 54.333 6 79 18s46 32 64 60s32.167 64.833 42.5 110.5s15.5 102.167 15.5 169.5s-5.16699 124 -15.5 170s-24.5 83 -42.5 111s-39.333 48 -64 60s-51 18 -79 18s-54.333 -6 -79 -18s-46 -32 -64 -60s-32.167 -65 -42.5 -111s-15.5 -102.667 -15.5 -170
s5.16699 -123.833 15.5 -169.5s24.5 -82.5 42.5 -110.5s39.333 -48 64 -60s51 -18 79 -18zM224 118c-12.667 0 -23.334 6 -32.001 18s-15.834 28.5 -21.501 49.5s-9.66699 45.667 -12 74s-3.5 58.833 -3.5 91.5s1.16699 62.834 3.5 90.501s6.33301 51.667 12 72
s12.834 36.333 21.501 48s19.334 17.5 32.001 17.5s23.5 -5.83301 32.5 -17.5s16.167 -27.667 21.5 -48s9.16602 -44.333 11.499 -72s3.5 -57.834 3.5 -90.501s-1.16699 -63.167 -3.5 -91.5s-6.16602 -53 -11.499 -74s-12.5 -37.5 -21.5 -49.5s-19.833 -18 -32.5 -18z" />
    <glyph glyph-name="P" unicode="P" horiz-adv-x="396" 
d="M41 0l129 -0.000976562v160c29.333 3.33301 57.166 12 83.499 26s49.333 32.667 69 56s35.334 50.833 47.001 82.5s17.5 67.167 17.5 106.5c0 48.667 -6.66699 90.334 -20 125.001s-32 63 -56 85s-52.667 38.167 -86 48.5s-70.333 15.5 -111 15.5h-73v-705zM170 282.999
v295.998c16.667 -0.666992 30.5 -5.5 41.5 -14.5s20 -20.5 27 -34.5s12 -29.667 15 -47s4.5 -34.666 4.5 -51.999s-1.5 -34.666 -4.5 -51.999s-8 -33 -15 -47s-16 -25.5 -27 -34.5s-24.833 -13.833 -41.5 -14.5z" />
    <glyph glyph-name="Q" unicode="Q" horiz-adv-x="447" 
d="M345 47c24.667 25.333 44.166 62.5 58.499 111.5s21.5 113.5 21.5 193.5c0 67.333 -5.16699 124 -15.5 170s-24.5 83 -42.5 111s-39.333 48 -64 60s-51 18 -79 18s-54.333 -6 -79 -18s-46 -32 -64 -60s-32.167 -65 -42.5 -111s-15.5 -102.667 -15.5 -170
c0 -66 5 -121.5 15 -166.5s23.833 -81.167 41.5 -108.5s38.334 -47 62.001 -59s49.5 -18.333 77.5 -19l37 -124h141zM223.999 118c-12.667 0 -23.334 6 -32.001 18s-15.834 28.5 -21.501 49.5s-9.66699 45.667 -12 74s-3.5 58.833 -3.5 91.5s1.16699 62.834 3.5 90.501
s6.33301 51.667 12 72s12.834 36.333 21.501 48s19.334 17.5 32.001 17.5s23.5 -5.83301 32.5 -17.5s16.167 -27.667 21.5 -48s9.16602 -44.333 11.499 -72s3.5 -57.834 3.5 -90.501s-1.16699 -63.167 -3.5 -91.5s-6.16602 -53 -11.499 -74s-12.5 -37.5 -21.5 -49.5
s-19.833 -18 -32.5 -18z" />
    <glyph glyph-name="R" unicode="R" horiz-adv-x="412" 
d="M305 252c23.333 19.333 42 44.665 56 75.998s21 70.666 21 117.999c0 46.667 -6.33301 86.334 -19 119.001s-30.667 59.334 -54 80.001s-51.5 35.834 -84.5 45.501s-69.833 14.5 -110.5 14.5h-73v-705h129v201l18 3l77 -204h135zM170 312.999v266
c16 -0.666992 29.167 -5 39.5 -13s18.833 -18.167 25.5 -30.5s11.334 -26.333 14.001 -42s4 -31.5 4 -47.5s-1.33301 -31.833 -4 -47.5s-7.33398 -29.667 -14.001 -42s-15.167 -22.5 -25.5 -30.5s-23.5 -12.333 -39.5 -13z" />
    <glyph glyph-name="S" unicode="S" horiz-adv-x="366" 
d="M161 -5c58.667 0 104.833 13.999 138.5 41.999s50.5 70.667 50.5 128c0 25.333 -4.83301 50.333 -14.5 75s-21.667 48.5 -36 71.5s-30 45.167 -47 66.5l-47 61c-14.333 19.333 -26.333 37.333 -36 54s-14.5 32.334 -14.5 47.001s4.5 25.667 13.5 33s21.167 11 36.5 11
c11.333 0 24 -1.33301 38 -4s27 -6.33398 39 -11.001l39 117c-10.667 5.33301 -27 10.833 -49 16.5s-46 8.5 -72 8.5c-21.333 0 -42.333 -2.5 -63 -7.5s-39.5 -14 -56.5 -27s-30.667 -30.5 -41 -52.5s-15.5 -50 -15.5 -84c0 -26.667 4.83301 -52.167 14.5 -76.5
s21.5 -48 35.5 -71s29.5 -44.833 46.5 -65.5s32.5 -40.5 46.5 -59.5s25.833 -37.167 35.5 -54.5s14.5 -33.333 14.5 -48c0 -15.333 -4.83301 -27.5 -14.5 -36.5s-24.167 -13.5 -43.5 -13.5s-39.833 3 -61.5 9s-38.5 12 -50.5 18l-40 -111
c21.333 -11.333 45.333 -20.166 72 -26.499s54 -9.5 82 -9.5z" />
    <glyph glyph-name="T" unicode="T" horiz-adv-x="378" 
d="M123 579v-579h134v579h112v126h-360v-126h114z" />
    <glyph glyph-name="U" unicode="U" horiz-adv-x="449" 
d="M225 -14c36 0 65.833 5.5 89.5 16.5s42.667 28.167 57 51.5s24.5 52.833 30.5 88.5s9 78.167 9 127.5v435h-128v-451c0 -49.333 -3.16699 -86 -9.5 -110s-21.833 -36 -46.5 -36c-12.667 0 -22.667 3 -30 9s-13 15 -17 27s-6.5 27.167 -7.5 45.5s-1.5 39.833 -1.5 64.5
v451h-132v-435c0 -50 3 -92.833 9 -128.5s16 -65 30 -88s33 -40 57 -51s54 -16.5 90 -16.5z" />
    <glyph glyph-name="V" unicode="V" horiz-adv-x="424" 
d="M246 -3l179 708h-128l-80 -348l-80 348h-138l179 -708h68z" />
    <glyph glyph-name="W" unicode="W" horiz-adv-x="628" 
d="M184 -9h41l87 320l91 -320h41l185 714h-129l-81 -325l-88 265h-37l-80 -264l-77 324h-138z" />
    <glyph glyph-name="X" unicode="X" horiz-adv-x="421" 
d="M224 523l-67 182h-138l120 -327l-134 -378h118l73 222l82 -222h138l-134 365l120 340h-118z" />
    <glyph glyph-name="Y" unicode="Y" horiz-adv-x="406" 
d="M138 250v-250h131v253l143 452h-120l-80 -271l-80 271h-138z" />
    <glyph glyph-name="Z" unicode="Z" horiz-adv-x="372" 
d="M8 0h351v120h-186l186 539v46h-328v-126h159l-182 -532v-47z" />
    <glyph glyph-name="bracketleft" unicode="[" horiz-adv-x="284" 
d="M40 -75h222v112h-96v625h96v119h-222v-856z" />
    <glyph glyph-name="backslash" unicode="\" horiz-adv-x="326" 
d="M197 0h124l-190 705h-124z" />
    <glyph glyph-name="bracketright" unicode="]" horiz-adv-x="284" 
d="M23 -75h222v856h-222v-119h96v-625h-96v-112z" />
    <glyph glyph-name="asciicircum" unicode="^" horiz-adv-x="298" 
d="M37 280h225v114h-225v-114z" />
    <glyph glyph-name="underscore" unicode="_" horiz-adv-x="294" 
d="M-17 -169h328v114h-328v-114z" />
    <glyph glyph-name="grave" unicode="`" horiz-adv-x="367" 
d="M143 519h110l-43 186h-139z" />
    <glyph glyph-name="a" unicode="a" horiz-adv-x="336" 
d="M185 302c-24.667 -4.66699 -47.5 -11 -68.5 -19s-39.333 -19.167 -55 -33.5s-27.834 -32.166 -36.501 -53.499s-13 -47.666 -13 -78.999c0 -40 9.5 -70.5 28.5 -91.5s41.5 -31.5 67.5 -31.5c16.667 0 31.834 3.33301 45.501 10s25.834 13.667 36.501 21l2 -25h114v291
c0 32.667 -2 60.667 -6 84s-11 42.5 -21 57.5s-23.167 26 -39.5 33s-36.5 10.5 -60.5 10.5c-14 0 -27.833 -0.833008 -41.5 -2.5s-26.167 -3.83398 -37.5 -6.50098s-21.5 -5.33398 -30.5 -8.00098s-15.833 -5 -20.5 -7l24 -106c10 3.33301 22.167 6.5 36.5 9.5
s27.166 4.5 38.499 4.5c15.333 0 25.333 -3.83301 30 -11.5s7 -21.167 7 -40.5v-6zM185 103c-10 -4.66699 -20 -6.99707 -30 -6.99707c-7.33301 0 -13.833 3.16699 -19.5 9.5s-8.5 15.166 -8.5 26.499c0 15.333 4.83301 29.166 14.5 41.499s24.167 21.166 43.5 26.499v-97z
" />
    <glyph glyph-name="b" unicode="b" horiz-adv-x="366" 
d="M150 22c11.333 -11.333 22.332 -18.833 32.999 -22.5s23.667 -5.5 39 -5.5c22 0 40.833 6 56.5 18s28.667 28.667 39 50s18 46.833 23 76.5s7.5 62.167 7.5 97.5s-2.5 67.833 -7.5 97.5s-12.667 55 -23 76s-23.333 37.333 -39 49s-34.5 17.5 -56.5 17.5
c-11.333 0 -22.666 -2.83301 -33.999 -8.5s-21.333 -12.167 -30 -19.5v263h-125v-711h114zM157.999 347c9.33301 4.66699 17.6689 7 25.002 7c9.33301 0 16.666 -3.33301 21.999 -10s9.16602 -15.5 11.499 -26.5s3.83301 -24 4.5 -39s1 -30.833 1 -47.5
c0 -17.333 -0.5 -33.5 -1.5 -48.5s-2.83301 -28 -5.5 -39s-6.66699 -19.667 -12 -26s-12 -9.5 -20 -9.5c-5.33301 0 -10 0.333008 -14 1s-7.66699 1.66699 -11 3v235z" />
    <glyph glyph-name="c" unicode="c" horiz-adv-x="280" 
d="M190 -6c17.333 0 31.499 1.50098 42.499 4.50098s22.167 7.16699 33.5 12.5l-31 101c-8 -2.66699 -14.5 -4.5 -19.5 -5.5s-11.167 -1.5 -18.5 -1.5c-9.33301 0 -17.333 3.83301 -24 11.5s-12.167 17.5 -16.5 29.5s-7.5 25.667 -9.5 41s-3 31 -3 47s1 31.667 3 47
s5.16699 29 9.5 41s9.83301 21.833 16.5 29.5s14.667 11.5 24 11.5c7.33301 0 13.5 -0.5 18.5 -1.5s11.5 -2.83301 19.5 -5.5l31 109c-11.333 5.33301 -22.666 9.5 -33.999 12.5s-25.333 4.5 -42 4.5c-24.667 0 -47.5 -4.83301 -68.5 -14.5s-39.167 -24.5 -54.5 -44.5
s-27.333 -45.333 -36 -76s-13 -67.334 -13 -110.001c0 -42 4.33301 -78.333 13 -109s20.667 -56 36 -76s33.5 -34.667 54.5 -44s43.833 -14 68.5 -14z" />
    <glyph glyph-name="d" unicode="d" horiz-adv-x="366" 
d="M208 455c-9.33301 8 -18.833 13.5 -28.5 16.5s-21.5 4.5 -35.5 4.5c-22 0 -40.833 -6 -56.5 -18s-28.667 -28.667 -39 -50s-18 -46.833 -23 -76.5s-7.5 -62.167 -7.5 -97.5s2.5 -67.833 7.5 -97.5s12.667 -55 23 -76s23.333 -37.333 39 -49s34.5 -17.5 56.5 -17.5
c12 0 24.167 3.33301 36.5 10s22.833 13.667 31.5 21l2 -25h119v711h-125v-256zM208 115c-9.33301 -4.66699 -17.668 -7 -25.001 -7c-9.33301 0 -16.666 3.33301 -21.999 10s-9.33301 15.5 -12 26.5s-4.16699 24 -4.5 39s-0.5 30.833 -0.5 47.5c0 17.333 0.5 33.5 1.5 48.5
s2.83301 28 5.5 39s6.66699 19.667 12 26s12 9.5 20 9.5c5.33301 0 10 -0.333008 14 -1s7.66699 -1.66699 11 -3v-235z" />
    <glyph glyph-name="e" unicode="e" horiz-adv-x="335" 
d="M140 183l174.001 0.00195312c0 53.333 -2.5 99 -7.5 137s-13 69 -24 93s-25.333 41.5 -43 52.5s-39.167 16.5 -64.5 16.5c-20 0 -39.5 -4.83301 -58.5 -14.5s-35.667 -24.5 -50 -44.5s-26 -45.333 -35 -76s-13.5 -67.334 -13.5 -110.001c0 -42 4.33301 -78.333 13 -109
s20.667 -56 36 -76s33.666 -34.667 54.999 -44s44.666 -14 69.999 -14c22.667 0 44.5 3 65.5 9s37.5 12.667 49.5 20l-29 99c-9.33301 -4 -21.166 -7.83301 -35.499 -11.5s-27.833 -5.5 -40.5 -5.5c-17.333 0 -31 6.66699 -41 20s-17 32.666 -21 57.999zM137.001 275.002
c1.33301 32 4.16699 56.168 8.5 72.501s12.833 24.5 25.5 24.5c6 0 10.833 -2.66699 14.5 -8s6.5 -12.5 8.5 -21.5s3.33301 -19.333 4 -31s1 -23.834 1 -36.501h-62z" />
    <glyph glyph-name="f" unicode="f" horiz-adv-x="250" 
d="M54 360v-359.999h125v360h71v116h-71v61c0 34.667 13.333 52 40 52c7.33301 0 17.666 -1.66699 30.999 -5l19 116c-8 3.33301 -18 6 -30 8s-24.667 3 -38 3c-16.667 0 -33.667 -2.16699 -51 -6.5s-33.166 -12.833 -47.499 -25.5s-26 -30.334 -35 -53.001
s-13.5 -52 -13.5 -88v-62h-54v-116h54z" />
    <glyph glyph-name="g" unicode="g" horiz-adv-x="351" 
d="M218 476c-14 4 -28.3359 6.00488 -43.0029 6.00488c-17.333 0 -34.833 -2.83301 -52.5 -8.5s-33.834 -14.834 -48.501 -27.501s-26.5 -29.334 -35.5 -50.001s-13.5 -45.667 -13.5 -75c0 -26.667 3.83301 -49.5 11.5 -68.5s17.5 -34.833 29.5 -47.5
c-12.667 -11.333 -23.667 -25.666 -33 -42.999s-14 -36.666 -14 -57.999c0 -19.333 3.5 -35 10.5 -47s16.167 -21.333 27.5 -28c-15.333 -12 -27.666 -26 -36.999 -42s-14 -33.333 -14 -52c0 -16.667 2.83301 -31.834 8.5 -45.501s14.834 -25.5 27.501 -35.5
s29.5 -17.833 50.5 -23.5s46.5 -8.5 76.5 -8.5c24.667 0 48.334 3.16699 71.001 9.5s42.834 16.166 60.501 29.499s31.834 30.166 42.501 50.499s16 44.5 16 72.5c0 24 -3.66699 43.833 -11 59.5s-18 28.667 -32 39s-31.333 18.166 -52 23.499s-44.334 9.33301 -71.001 12
c-24.667 2.66699 -42.5 5.5 -53.5 8.5s-16.5 10.167 -16.5 21.5c0 8.66699 1.33301 16 4 22c16 -4 32 -6 48 -6c17.333 0 35 2.66699 53 8s34.167 14.166 48.5 26.499s26.166 28.5 35.499 48.5s14 44.667 14 74c0 25.333 -3.16699 47 -9.5 65s-15.166 33.333 -26.499 46
l60 86h-112zM174.997 242.005c-10.667 0 -18.334 6.5 -23.001 19.5s-7 30.833 -7 53.5s2.33301 40.5 7 53.5s12.334 19.5 23.001 19.5s18.5 -6.5 23.5 -19.5s7.5 -30.833 7.5 -53.5s-2.5 -40.5 -7.5 -53.5s-12.833 -19.5 -23.5 -19.5zM140.997 6.00488
c5.33301 -0.666992 10.999 -1.16895 16.999 -1.50195s11.667 -1.16602 17 -2.49902c22 -3.33301 37.833 -7.83301 47.5 -13.5s14.5 -15.167 14.5 -28.5c0 -15.333 -5.66699 -27.666 -17 -36.999s-26.666 -14 -45.999 -14c-37.333 0 -56 15.667 -56 47
c0 8 1.83301 16.5 5.5 25.5s9.5 17.167 17.5 24.5z" />
    <glyph glyph-name="h" unicode="h" horiz-adv-x="370" 
d="M158 346c5.33301 2 10.835 3.66699 16.502 5s12.167 2 19.5 2c9.33301 0 15.166 -4.5 17.499 -13.5s3.5 -25.167 3.5 -48.5v-291h125v291c0 66 -7.83301 113.333 -23.5 142s-43.5 43 -83.5 43c-10.667 0 -23.334 -3 -38.001 -9s-27 -12.667 -37 -20v264h-125v-711h125
v346z" />
    <glyph glyph-name="i" unicode="i" horiz-adv-x="196" 
d="M98 518c9.33301 0 18.666 2 27.999 6s17.5 9.5 24.5 16.5s12.667 14.833 17 23.5s6.5 18 6.5 28c0 11.333 -2.16699 21.833 -6.5 31.5s-10 18.167 -17 25.5s-15.167 13 -24.5 17s-18.666 6 -27.999 6c-21.333 0 -39.333 -7.66699 -54 -23s-22 -34.333 -22 -57
c0 -10 2 -19.333 6 -28s9.5 -16.5 16.5 -23.5s15 -12.5 24 -16.5s18.833 -6 29.5 -6zM36 0h125v476h-125v-476z" />
    <glyph glyph-name="j" unicode="j" horiz-adv-x="197" 
d="M98 518c9.33301 0 18.666 2 27.999 6s17.5 9.5 24.5 16.5s12.667 14.833 17 23.5s6.5 18 6.5 28c0 11.333 -2.16699 21.833 -6.5 31.5s-10 18.167 -17 25.5s-15.167 13 -24.5 17s-18.666 6 -27.999 6c-21.333 0 -39.333 -7.66699 -54 -23s-22 -34.333 -22 -57
c0 -10 2 -19.333 6 -28s9.5 -16.5 16.5 -23.5s15 -12.5 24 -16.5s18.833 -6 29.5 -6zM13 -178c16.667 0 33.832 2.16602 51.499 6.49902s33.667 12.833 48 25.5s26 30.334 35 53.001s13.5 52 13.5 88v481h-125v-489c0 -34.667 -13.667 -52 -41 -52
c-7.33301 0 -17.666 1.66699 -30.999 5l-19 -107c8 -3.33301 18 -6 30 -8s24.667 -3 38 -3z" />
    <glyph glyph-name="k" unicode="k" horiz-adv-x="339" 
d="M158 192l60 -192h127l-100 314l88 162h-107l-68 -126v361h-125v-711h125v192z" />
    <glyph glyph-name="l" unicode="l" horiz-adv-x="196" 
d="M36 0h125v711h-125v-711z" />
    <glyph glyph-name="m" unicode="m" horiz-adv-x="548" 
d="M319 433c-8 16 -19.1631 27.167 -33.4961 33.5s-32.5 9.5 -54.5 9.5c-11.333 0 -24.5 -3.33301 -39.5 -10s-27.5 -13.667 -37.5 -21l-2 31h-119v-476h125v346c5.33301 2 10.5 3.66699 15.5 5s11.167 2 18.5 2c9.33301 0 15.166 -4.5 17.499 -13.5s3.5 -25.167 3.5 -48.5
v-291h125v311v18c0 6 -0.333008 11.667 -1 17c5.33301 2 10.666 3.66699 15.999 5s11.666 2 18.999 2c9.33301 0 15.166 -4.5 17.499 -13.5s3.5 -25.167 3.5 -48.5v-291h125v291c0 66 -7.83301 113.333 -23.5 142s-43.5 43 -83.5 43c-14 0 -29.5 -4.33301 -46.5 -13
s-32.167 -18.667 -45.5 -30z" />
    <glyph glyph-name="n" unicode="n" horiz-adv-x="370" 
d="M154 445l-1.99902 31h-119v-476h125v346c5.33301 2 10.833 3.66699 16.5 5s12.167 2 19.5 2c9.33301 0 15.166 -4.5 17.499 -13.5s3.5 -25.167 3.5 -48.5v-291h125v291c0 66 -7.83301 113.333 -23.5 142s-43.5 43 -83.5 43c-11.333 0 -24.833 -3.33301 -40.5 -10
s-28.5 -13.667 -38.5 -21z" />
    <glyph glyph-name="o" unicode="o" 
d="M180 -6c22 0 42.833 4.66699 62.5 14s37 24 52 44s27 45.333 36 76s13.5 67 13.5 109c0 42.667 -4.5 79.334 -13.5 110.001s-21 56 -36 76s-32.333 34.833 -52 44.5s-40.5 14.5 -62.5 14.5s-42.667 -4.83301 -62 -14.5s-36.5 -24.5 -51.5 -44.5
s-26.833 -45.333 -35.5 -76s-13 -67.334 -13 -110.001c0 -42 4.33301 -78.333 13 -109s20.5 -56 35.5 -76s32.167 -34.667 51.5 -44s40 -14 62 -14zM180 110c-8 0 -14.333 3.66699 -19 11s-8.16699 16.833 -10.5 28.5s-4 24.834 -5 39.501s-1.5 29.667 -1.5 45
c0 14.667 0.5 29.5 1.5 44.5s2.66699 28.333 5 40s5.83301 21.167 10.5 28.5s11 11 19 11s14.333 -3.66699 19 -11s8.5 -16.833 11.5 -28.5s5 -25 6 -40s1.5 -29.833 1.5 -44.5c0 -15.333 -0.5 -30.333 -1.5 -45s-3 -27.834 -6 -39.501s-6.83301 -21.167 -11.5 -28.5
s-11 -11 -19 -11z" />
    <glyph glyph-name="p" unicode="p" horiz-adv-x="366" 
d="M154 445l-2 31h-119v-649h125v188c9.33301 -8 18.833 -13.5 28.5 -16.5s21.5 -4.5 35.5 -4.5c22 0 40.833 6 56.5 18s28.667 28.667 39 50s18 46.833 23 76.5s7.5 62.167 7.5 97.5s-2.5 67.833 -7.5 97.5s-12.667 55 -23 76s-23.333 37.333 -39 49s-34.5 17.5 -56.5 17.5
c-12 0 -24 -3.33301 -36 -10s-22.667 -13.667 -32 -21zM158 112l0.00292969 235c9.33301 4.66699 17.666 7 24.999 7c9.33301 0 16.666 -3.33301 21.999 -10s9.16602 -15.5 11.499 -26.5s3.83301 -24 4.5 -39s1 -30.833 1 -47.5c0 -17.333 -0.5 -33.5 -1.5 -48.5
s-2.83301 -28 -5.5 -39s-6.66699 -19.667 -12 -26s-12 -9.5 -20 -9.5c-5.33301 0 -10 0.333008 -14 1s-7.66699 1.66699 -11 3z" />
    <glyph glyph-name="q" unicode="q" horiz-adv-x="366" 
d="M208 22l0.000976562 -195h125v649h-119l-2 -25c-10.667 9.33301 -21 15.833 -31 19.5s-22.333 5.5 -37 5.5c-22 0 -40.833 -6 -56.5 -18s-28.667 -28.667 -39 -50s-18 -46.833 -23 -76.5s-7.5 -62.167 -7.5 -97.5s2.5 -67.833 7.5 -97.5s12.667 -55 23 -76
s23.333 -37.333 39 -49s34.5 -17.5 56.5 -17.5c11.333 0 22.666 2.83301 33.999 8.5s21.333 12.167 30 19.5zM208.001 350l-0.00195312 -235c-9.33301 -4.66699 -17.666 -7 -24.999 -7c-9.33301 0 -16.666 3.33301 -21.999 10s-9.33301 15.5 -12 26.5s-4.16699 24 -4.5 39
s-0.5 30.833 -0.5 47.5c0 17.333 0.5 33.5 1.5 48.5s2.83301 28 5.5 39s6.66699 19.667 12 26s12 9.5 20 9.5c5.33301 0 10 -0.333008 14 -1s7.66699 -1.66699 11 -3z" />
    <glyph glyph-name="r" unicode="r" horiz-adv-x="248" 
d="M156 422l-4.00098 53.999h-119v-476h125v311c22.667 12.667 48.334 23.334 77.001 32.001v141c-16 -6 -31 -15 -45 -27s-25.333 -23.667 -34 -35z" />
    <glyph glyph-name="s" unicode="s" horiz-adv-x="289" 
d="M134 -6c48 0 84.002 10.999 108.002 32.999s36 52.667 36 92c0 28 -7 53.667 -21 77s-29.167 44.333 -45.5 63s-31.5 35 -45.5 49s-21 26 -21 36c0 7.33301 2.33301 12.833 7 16.5s13.667 5.5 27 5.5c8 0 17.167 -1 27.5 -3s19.166 -4.66699 26.499 -8l30 111
c-16 5.33301 -31.667 9.33301 -47 12s-30.333 4 -45 4c-43.333 0 -78.5 -11 -105.5 -33s-40.5 -55.667 -40.5 -101c0 -28 7 -53.667 21 -77s29.167 -44.166 45.5 -62.499l45.5 -49c14 -14.333 21 -26.833 21 -37.5c0 -15.333 -9.66699 -23 -29 -23
c-22.667 0 -50.334 7.33301 -83.001 22l-38 -99c19.333 -8.66699 39.333 -15.5 60 -20.5s42.667 -7.5 66 -7.5z" />
    <glyph glyph-name="t" unicode="t" horiz-adv-x="261" 
d="M48 360l-0.00292969 -230c0 -28 3.83301 -50.833 11.5 -68.5s17.834 -31.5 30.501 -41.5s26.667 -16.833 42 -20.5s31 -5.5 47 -5.5c11.333 0 24.333 0.666992 39 2s25.334 3 32.001 5v95l-15.5 -2c-5 -0.666992 -9.5 -1 -13.5 -1c-10.667 0 -19.167 0.666992 -25.5 2
s-11.166 4 -14.499 8s-5.5 9.33301 -6.5 16s-1.5 15 -1.5 25v216h77v116h-77v145h-125v-145h-48v-116h48z" />
    <glyph glyph-name="u" unicode="u" horiz-adv-x="370" 
d="M213 124c-5.33301 -2 -10.834 -3.66699 -16.501 -5s-12.167 -2 -19.5 -2c-9.33301 0 -15.166 4.5 -17.499 13.5s-3.5 25.167 -3.5 48.5v297h-125v-297c0 -66 7.83301 -113.333 23.5 -142s43.5 -43 83.5 -43c11.333 0 24.833 3.33301 40.5 10s28.5 13.667 38.5 21l2 -25
h119v476h-125v-352z" />
    <glyph glyph-name="v" unicode="v" horiz-adv-x="330" 
d="M125 -6h80l134 482h-117l-53 -216l-51 216h-127z" />
    <glyph glyph-name="w" unicode="w" horiz-adv-x="460" 
d="M119 -6h45l66 203l66 -203h45l127 482h-108l-50 -212l-58 187h-31l-59 -189l-49 214h-121z" />
    <glyph glyph-name="x" unicode="x" horiz-adv-x="316" 
d="M170 369l-43 107h-123l91 -226l-99 -250h105l46 123l50 -123h123l-98 242l93 234h-105z" />
    <glyph glyph-name="y" unicode="y" horiz-adv-x="301" 
d="M99 -2l-38 -171h109l140 649h-106l-48 -219l-46 219h-119z" />
    <glyph glyph-name="z" unicode="z" horiz-adv-x="293" 
d="M7 0h281v109h-122l115 338v29h-256v-116h96l-114 -333v-27z" />
    <glyph glyph-name="braceleft" unicode="{" horiz-adv-x="316" 
d="M269 -78l23.998 -0.000976562v113c-24 0 -43 2 -57 6s-24.167 10.833 -30.5 20.5s-9.83301 22.5 -10.5 38.5s0 35.667 2 59l6 72c1.33301 17.333 0.166016 32.833 -3.50098 46.5s-9.16699 25.5 -16.5 35.5s-16 18.167 -26 24.5s-20.333 10.833 -31 13.5
c10.667 2.66699 21 7.33398 31 14.001s18.667 15 26 25s12.833 21.833 16.5 35.5s4.83398 29.167 3.50098 46.5l-6 72c-2 24 -2.5 43.5 -1.5 58.5s4.66699 27 11 36s16.333 15.167 30 18.5s32.5 5 56.5 5v119h-24c-77.333 0 -132.166 -18.667 -164.499 -56
s-44.833 -93 -37.5 -167l8 -86c1.33301 -18 -1.33398 -33.167 -8.00098 -45.5s-15.667 -18.5 -27 -18.5h-39v-113h39c11.333 0 20.5 -5.33301 27.5 -16s9.5 -26.667 7.5 -48l-8 -86c-7.33301 -77.333 5.33398 -133.833 38.001 -169.5s87.334 -53.5 164.001 -53.5z" />
    <glyph glyph-name="bar" unicode="|" horiz-adv-x="218" 
d="M49 -75h121v856h-121v-856z" />
    <glyph glyph-name="braceright" unicode="}" horiz-adv-x="316" 
d="M23 -78l23.998 0.000976562c76.667 0 131.334 17.667 164.001 53s45.334 92 38.001 170l-8 86c-2 21.333 0.5 37.333 7.5 48s16.167 16 27.5 16h39v113h-39c-11.333 0 -20.333 6.16699 -27 18.5s-9.33398 27.5 -8.00098 45.5l8 86
c7.33301 74.667 -5.16699 130.5 -37.5 167.5s-87.166 55.5 -164.499 55.5h-24v-119c24 0 42.833 -1.66699 56.5 -5s23.667 -9.5 30 -18.5s10 -21 11 -36s0.5 -34.5 -1.5 -58.5l-6 -72c-1.33301 -17.333 -0.166016 -32.833 3.50098 -46.5s9.16699 -25.5 16.5 -35.5
s16 -18.333 26 -25s20.333 -11.334 31 -14.001c-10.667 -2.66699 -21 -7.16699 -31 -13.5s-18.667 -14.5 -26 -24.5s-12.833 -21.833 -16.5 -35.5s-4.83398 -29.167 -3.50098 -46.5l6 -72c2 -23.333 2.66699 -43 2 -59s-4.16699 -28.833 -10.5 -38.5
s-16.5 -16.5 -30.5 -20.5s-33 -6 -57 -6v-113z" />
    <glyph glyph-name="asciitilde" unicode="~" horiz-adv-x="368" 
d="M30 542l97.002 -21.002c3.33301 18.667 6.66602 30.5 9.99902 35.5s8.33301 7.5 15 7.5c4 0 8.83301 -2.16699 14.5 -6.5s12.167 -9 19.5 -14s15.5 -9.5 24.5 -13.5s18.833 -6 29.5 -6c20.667 0 39.5 11.333 56.5 34s30.833 62.667 41.5 120l-98 19
c-4 -18.667 -7.66699 -30.667 -11 -36s-8.66602 -8 -15.999 -8c-4 0 -8.66699 2 -14 6l-18.5 13.5c-7 5 -14.833 9.5 -23.5 13.5s-18.334 6 -29.001 6c-8.66699 0 -17.667 -2.33301 -27 -7s-18.333 -12.667 -27 -24s-16.834 -26.666 -24.501 -45.999
s-14.167 -43.666 -19.5 -72.999z" />
    <glyph glyph-name="nonbreakingspace" unicode="&#xa0;" horiz-adv-x="88" 
 />
    <glyph glyph-name="exclamdown" unicode="&#xa1;" horiz-adv-x="265" 
d="M134 346c23.333 0 43.333 8.33301 60 25s25 37 25 61c0 26.667 -8.33301 48.167 -25 64.5s-36.667 24.5 -60 24.5c-24.667 0 -45.334 -8.16699 -62.001 -24.5s-25 -37.833 -25 -64.5c0 -24 8.33301 -44.333 25 -61s37.334 -25 62.001 -25zM70 -189h125v485h-125v-485z
" />
    <glyph glyph-name="cent" unicode="&#xa2;" horiz-adv-x="278" 
d="M129 471c-34 -12.667 -61.334 -37.999 -82.001 -75.999s-31 -90.667 -31 -158c0 -66.667 10.333 -118.834 31 -156.501s48 -63.167 82 -76.5v-92h75v83c12.667 0.666992 23.5 2.5 32.5 5.5s18.167 6.5 27.5 10.5l-31 101c-8 -2.66699 -14.5 -4.5 -19.5 -5.5
s-11.167 -1.5 -18.5 -1.5c-9.33301 0 -17.333 3.83301 -24 11.5s-12.167 17.5 -16.5 29.5s-7.5 25.667 -9.5 41s-3 31 -3 47s1 31.667 3 47s5.16699 29 9.5 41s9.83301 21.833 16.5 29.5s14.667 11.5 24 11.5c7.33301 0 13.5 -0.5 18.5 -1.5s11.5 -2.83301 19.5 -5.5l31 109
c-9.33301 4 -18.666 7.5 -27.999 10.5s-20 4.83301 -32 5.5v71h-75v-81z" />
    <glyph glyph-name="sterling" unicode="&#xa3;" horiz-adv-x="369" 
d="M69 280c2 -16 2.99902 -31.3271 2.99902 -45.9941c0 -18.667 -1.33301 -35.834 -4 -51.501s-6.66699 -30.834 -12 -45.501s-12.166 -29.334 -20.499 -44.001s-18.166 -30 -29.499 -46v-47h346v120h-169c4.66699 10 9.5 25.333 14.5 46s7.5 42.667 7.5 66
c0 16.667 -1.33301 32.667 -4 48h95v107h-116c-5.33301 21.333 -9.83301 42.166 -13.5 62.499s-5.5 39.166 -5.5 56.499c0 20.667 4.33301 37.834 13 51.501s24.667 20.5 48 20.5c14 0 27.667 -1.66699 41 -5s25.666 -7.33301 36.999 -12l48 109
c-15.333 9.33301 -34.833 17.5 -58.5 24.5s-50.834 10.5 -81.501 10.5c-22.667 0 -44.667 -3.83301 -66 -11.5s-40.333 -19.167 -57 -34.5s-30 -34.833 -40 -58.5s-15 -51.834 -15 -84.501c0 -20.667 1.83301 -41.834 5.5 -63.501s7.83398 -43.5 12.501 -65.5h-42v-107h63z
" />
    <glyph glyph-name="currency" unicode="&#xa4;" horiz-adv-x="421" 
d="M75 389c-0.666992 -6 -0.99707 -12.332 -0.99707 -18.999v-19v-25h-63v-93h73c8.66699 -44.667 21.667 -82.167 39 -112.5s37.166 -54.666 59.499 -72.999s46.333 -31.5 72 -39.5s51.167 -12 76.5 -12c18.667 0 36.667 2 54 6l-16 125c-11.333 -2 -21.333 -3 -30 -3
c-30.667 0 -56 9.83301 -76 29.5s-35.333 46.167 -46 79.5h111v93h-126v23c0 7.33301 0.166992 14.166 0.5 20.499s0.833008 12.833 1.5 19.5h124v91h-106c11.333 28 26.666 50.333 45.999 67s43.333 25 72 25c9.33301 0 19 -1 29 -3l16 130c-17.333 4 -35.333 6 -54 6
c-24.667 0 -49.667 -3.83301 -75 -11.5s-49 -20.167 -71 -37.5s-41.833 -40.333 -59.5 -69s-30.834 -64.334 -39.501 -107.001h-75v-91h64z" />
    <glyph glyph-name="yen" unicode="&#xa5;" horiz-adv-x="416" 
d="M106 384h-85v-113h121v-63h-121v-113h121v-95h133v95h119v113h-119v63h119v113h-86l103 315h-119l-72 -249l-75 249h-139z" />
    <glyph glyph-name="brokenbar" unicode="&#xa6;" horiz-adv-x="218" 
d="M49 384h121v397h-121v-397zM49 -75h121v397h-121v-397z" />
    <glyph glyph-name="section" unicode="&#xa7;" horiz-adv-x="345" 
d="M196 177c-11.333 -22 -29.167 -39.833 -53.5 -53.5s-59.5 -20.5 -105.5 -20.5v-111c45.333 0 86 6.33301 122 19s66.333 31 91 55s43.5 52.833 56.5 86.5s19.5 71.5 19.5 113.5c0 66 -15.333 120.833 -46 164.5s-74.334 73.834 -131.001 90.501
c11.333 21.333 29.333 39 54 53s59.667 21 105 21v110c-45.333 0 -86 -6.33301 -122 -19s-66.333 -30.834 -91 -54.501s-43.5 -52.5 -56.5 -86.5s-19.5 -72 -19.5 -114c0 -66 15.333 -120.833 46 -164.5s74.334 -73.5 131.001 -89.5zM129.999 415
c54.667 -24 83 -68.333 85 -133c-28 12 -48.833 29.5 -62.5 52.5s-21.167 49.833 -22.5 80.5z" />
    <glyph glyph-name="dieresis" unicode="&#xa8;" horiz-adv-x="368" 
d="M262 528c8.66699 0 17 1.83203 25 5.49902s15.167 8.5 21.5 14.5s11.5 13 15.5 21s6 16.333 6 25c0 20 -7 37 -21 51s-29.667 21 -47 21c-18.667 0 -34.667 -7 -48 -21s-20 -31 -20 -51c0 -17.333 6.66699 -32.666 20 -45.999s29.333 -20 48 -20zM107 527.999
c8.66699 0 17 1.83203 25 5.49902s15.167 8.5 21.5 14.5s11.5 13 15.5 21s6 16.333 6 25c0 20 -7 37 -21 51s-29.667 21 -47 21c-18.667 0 -34.667 -7 -48 -21s-20 -31 -20 -51c0 -17.333 6.66699 -32.666 20 -45.999s29.333 -20 48 -20z" />
    <glyph glyph-name="copyright" unicode="&#xa9;" horiz-adv-x="477" 
d="M239 -7c27.333 0 54 7.66699 80 23s49.167 38 69.5 68s36.666 67.5 48.999 112.5s18.5 97.5 18.5 157.5s-6.16699 112.5 -18.5 157.5s-28.666 82.5 -48.999 112.5s-43.5 52.667 -69.5 68s-52.667 23 -80 23s-54 -7.66699 -80 -23s-49.167 -38 -69.5 -68
s-36.666 -67.5 -48.999 -112.5s-18.5 -97.5 -18.5 -157.5s6.16699 -112.5 18.5 -157.5s28.666 -82.5 48.999 -112.5s43.5 -52.667 69.5 -68s52.667 -23 80 -23zM239 57c-24 0 -45.833 7.33301 -65.5 22s-36.5 35.167 -50.5 61.5s-25 57.666 -33 93.999
s-12 76.166 -12 119.499s4 83.166 12 119.499s19 67.666 33 93.999s30.833 46.833 50.5 61.5s41.5 22 65.5 22s45.833 -7.33301 65.5 -22s36.5 -35.167 50.5 -61.5s25 -57.666 33 -93.999s12 -76.166 12 -119.499s-4 -83.166 -12 -119.499s-19 -67.666 -33 -93.999
s-30.833 -46.833 -50.5 -61.5s-41.5 -22 -65.5 -22zM252 133c17.333 0 32.333 2.49902 45 7.49902s21.334 9.5 26.001 13.5l-25 83c-5.33301 -3.33301 -11.666 -6.16602 -18.999 -8.49902s-15.333 -3.5 -24 -3.5c-8 0 -14.667 3.5 -20 10.5s-9.5 16.167 -12.5 27.5
s-5.16699 24.666 -6.5 39.999s-2 31.666 -2 48.999c0 16.667 0.666992 32.334 2 47.001s3.5 27.334 6.5 38.001s7.16699 19.167 12.5 25.5s12 9.5 20 9.5c8.66699 0 16.667 -1 24 -3s13.666 -4.33301 18.999 -7l25 88c-4.66699 4 -13.334 8.33301 -26.001 13
s-27.667 7 -45 7c-16 0 -31.5 -3.66699 -46.5 -11s-28.167 -19.5 -39.5 -36.5s-20.333 -39.5 -27 -67.5s-10 -62.667 -10 -104s3.33301 -75.833 10 -103.5s15.667 -50 27 -67s24.5 -29.167 39.5 -36.5s30.5 -11 46.5 -11z" />
    <glyph glyph-name="ordfeminine" unicode="&#xaa;" horiz-adv-x="303" 
d="M170 565c-19.333 -3.33301 -37.167 -8.33301 -53.5 -15s-30.666 -15.667 -42.999 -27s-22 -25.5 -29 -42.5s-10.5 -37.833 -10.5 -62.5c0 -32 7.5 -56.5 22.5 -73.5s33.167 -25.5 54.5 -25.5c13.333 0 25.333 2.83301 36 8.5s19.667 11.5 27 17.5l2 -21h93v233
c0 52.667 -7.16699 90.5 -21.5 113.5s-40.833 34.5 -79.5 34.5c-22.667 0 -43.834 -2.33301 -63.501 -7s-33.167 -8.66699 -40.5 -12l19 -79c8 3.33301 17.667 6 29 8s21.666 3 30.999 3c12.667 0 20.334 -3.16699 23.001 -9.5s4 -16.833 4 -31.5v-12zM37.999 185h231v95
h-231v-95zM169.999 406c-6.66699 -3.33301 -13.667 -4.99902 -21 -4.99902c-6 0 -11.333 2.5 -16 7.5s-7 12.167 -7 21.5c0 11.333 3.83301 22.166 11.5 32.499s18.5 17.5 32.5 21.5v-78z" />
    <glyph glyph-name="guillemotleft" unicode="&#xab;" horiz-adv-x="464" 
d="M309 0h119l-73 238l73 238h-119l-73 -238zM109 0h119l-73 238l73 238h-119l-73 -238z" />
    <glyph glyph-name="logicalnot" unicode="&#xac;" horiz-adv-x="493" 
d="M194 476h-187l150 -191l-58 -300l147 187l148 -187l-59 299l152 192h-189l-52 268z" />
    <glyph glyph-name="registered" unicode="&#xae;" horiz-adv-x="477" 
d="M239 -7c27.333 0 54 7.66699 80 23s49.167 38 69.5 68s36.666 67.5 48.999 112.5s18.5 97.5 18.5 157.5s-6.16699 112.5 -18.5 157.5s-28.666 82.5 -48.999 112.5s-43.5 52.667 -69.5 68s-52.667 23 -80 23s-54 -7.66699 -80 -23s-49.167 -38 -69.5 -68
s-36.666 -67.5 -48.999 -112.5s-18.5 -97.5 -18.5 -157.5s6.16699 -112.5 18.5 -157.5s28.666 -82.5 48.999 -112.5s43.5 -52.667 69.5 -68s52.667 -23 80 -23zM239 57c-24 0 -45.833 7.33301 -65.5 22s-36.5 35.167 -50.5 61.5s-25 57.666 -33 93.999
s-12 76.166 -12 119.499s4 83.166 12 119.499s19 67.666 33 93.999s30.833 46.833 50.5 61.5s41.5 22 65.5 22s45.833 -7.33301 65.5 -22s36.5 -35.167 50.5 -61.5s25 -57.666 33 -93.999s12 -76.166 12 -119.499s-4 -83.166 -12 -119.499s-19 -67.666 -33 -93.999
s-30.833 -46.833 -50.5 -61.5s-41.5 -22 -65.5 -22zM294 300c12.667 10.667 22.5 24.5 29.5 41.5s10.5 38.167 10.5 63.5c0 51.333 -13.5 88 -40.5 110s-62.833 33 -107.5 33h-42v-387h76v109h4l40 -109h85zM220 336v127.998c14.667 -1.33301 24.667 -8.66602 30 -21.999
s8 -27.333 8 -42s-2.66699 -28.667 -8 -42s-15.333 -20.666 -30 -21.999z" />
    <glyph glyph-name="macron" unicode="&#xaf;" horiz-adv-x="367" 
d="M94 525h179v113h-179v-113z" />
    <glyph glyph-name="macron" unicode="&#x2c9;" horiz-adv-x="367" 
d="M94 525h179v113h-179v-113z" />
    <glyph glyph-name="degree" unicode="&#xb0;" horiz-adv-x="299" 
d="M151 278c16.667 0 32.834 4.33301 48.501 13s29.334 22 41.001 40s21 40.333 28 67s10.5 58 10.5 94s-3.5 67.333 -10.5 94s-16.333 48.834 -28 66.501s-25.334 30.834 -41.001 39.501s-31.834 13 -48.501 13c-17.333 0 -33.833 -4.33301 -49.5 -13
s-29.5 -21.834 -41.5 -39.501s-21.5 -39.834 -28.5 -66.501s-10.5 -58 -10.5 -94s3.5 -67.333 10.5 -94s16.5 -49 28.5 -67s25.833 -31.333 41.5 -40s32.167 -13 49.5 -13zM151 379c-8.66699 0 -15.834 3.16699 -21.501 9.5s-10 14.666 -13 24.999s-5 22.333 -6 36
s-1.5 27.834 -1.5 42.501s0.5 28.667 1.5 42s3 25.166 6 35.499s7.33301 18.666 13 24.999s12.834 9.5 21.501 9.5s15.5 -3.16699 20.5 -9.5s9 -14.666 12 -24.999s5 -22.166 6 -35.499s1.5 -27.333 1.5 -42s-0.5 -28.834 -1.5 -42.501s-3 -25.667 -6 -36
s-7 -18.666 -12 -24.999s-11.833 -9.5 -20.5 -9.5z" />
    <glyph glyph-name="plusminus" unicode="&#xb1;" horiz-adv-x="578" 
d="M418 360l-0.00292969 -359.999h125v700h-74c-10 3.33301 -20.667 6 -32 8s-25.333 3 -42 3c-51.333 0 -89.666 -15.667 -114.999 -47c-10.667 4.66699 -23.667 8.66699 -39 12s-28.666 5 -39.999 5c-16.667 0 -33.667 -2.16699 -51 -6.5s-33.166 -12.833 -47.499 -25.5
s-26 -30.334 -35 -53.001s-13.5 -52 -13.5 -88v-32h-54v-116h54v-360h125v360h57v-360h125v360h57zM360.997 476.001v38c0 24 3.5 42.5 10.5 55.5s21.167 19.5 42.5 19.5h4v-113h-57zM178.997 476.001v36c0 34.667 13.333 52 40 52c6 0 13 -1 21 -3
c-1.33301 -10 -2.33301 -20.5 -3 -31.5s-1 -22.5 -1 -34.5v-19h-57z" />
    <glyph glyph-name="twosuperior" unicode="&#xb2;" horiz-adv-x="285" 
d="M26 262l228.001 -0.000976562v92h-95l13 25c19.333 37.333 35.666 72.5 48.999 105.5s20 67.167 20 102.5c0 36 -10.167 64.667 -30.5 86s-49.5 32 -87.5 32c-14 0 -29.333 -2 -46 -6s-33.667 -10.333 -51 -19l27 -87c14 5.33301 25.667 9 35 11s17.666 3 24.999 3
c10.667 0 18.334 -2.5 23.001 -7.5s7 -11.5 7 -19.5c0 -19.333 -6 -43.666 -18 -72.999s-29.667 -67 -53 -113l-46 -92v-40z" />
    <glyph glyph-name="threesuperior" unicode="&#xb3;" horiz-adv-x="277" 
d="M37 256c67.333 0 120 13.332 158 39.999s57 69.334 57 128.001c0 18.667 -2.5 35 -7.5 49s-11.5 26 -19.5 36s-16.833 18.333 -26.5 25s-18.834 12 -27.501 16l68 111l1 39h-206v-95h80l-45 -69v-39c26.667 -4 47.334 -12.167 62.001 -24.5s22 -27.5 22 -45.5
c0 -10 -1.33301 -19.5 -4 -28.5s-8.33398 -17 -17.001 -24s-20.667 -12.5 -36 -16.5s-35.666 -6 -60.999 -6z" />
    <glyph glyph-name="acute" unicode="&#xb4;" horiz-adv-x="367" 
d="M115 519h109l73 186h-139z" />
    <glyph glyph-name="mu" unicode="&#xb5;" horiz-adv-x="493" 
d="M194 476h-187l150 -191l-58 -300l147 187l148 -187l-59 299l152 192h-189l-52 268z" />
    <glyph glyph-name="mu" unicode="&#x3bc;" horiz-adv-x="493" 
d="M194 476h-187l150 -191l-58 -300l147 187l148 -187l-59 299l152 192h-189l-52 268z" />
    <glyph glyph-name="paragraph" unicode="&#xb6;" horiz-adv-x="390" 
d="M204 241c4 -0.666992 7.66699 -1 11 -1h12h6v-240h121v700h-121c-43.333 0 -79.333 -6.66699 -108 -20s-51.667 -30.833 -69 -52.5s-29.666 -46.334 -36.999 -74.001s-11 -55.5 -11 -83.5c0 -33.333 5.66699 -66.666 17 -99.999s30.666 -61.333 57.999 -84v-286h121v241z
M233 341c-17.333 0 -32.333 3.33398 -45 10.001s-23 15.667 -31 27s-14 24.666 -18 39.999s-6 31.666 -6 48.999s2 33.833 6 49.5s10 29.334 18 41.001s18.333 21 31 28s27.667 10.5 45 10.5v-255z" />
    <glyph glyph-name="periodcentered" unicode="&#xb7;" horiz-adv-x="250" 
d="M124 244c26 0 47.833 8.66699 65.5 26s26.5 40 26.5 68c0 25.333 -8.83301 46.833 -26.5 64.5s-39.5 26.5 -65.5 26.5c-12 0 -23.5 -2.33301 -34.5 -7s-20.5 -11.167 -28.5 -19.5s-14.333 -18 -19 -29s-7 -22.833 -7 -35.5c0 -28 8.66699 -50.667 26 -68
s38.333 -26 63 -26z" />
    <glyph glyph-name="periodcentered" unicode="&#x22c5;" horiz-adv-x="250" 
d="M124 244c26 0 47.833 8.66699 65.5 26s26.5 40 26.5 68c0 25.333 -8.83301 46.833 -26.5 64.5s-39.5 26.5 -65.5 26.5c-12 0 -23.5 -2.33301 -34.5 -7s-20.5 -11.167 -28.5 -19.5s-14.333 -18 -19 -29s-7 -22.833 -7 -35.5c0 -28 8.66699 -50.667 26 -68
s38.333 -26 63 -26z" />
    <glyph glyph-name="cedilla" unicode="&#xb8;" horiz-adv-x="367" 
d="M103 -153h131l29 196h-92z" />
    <glyph glyph-name="onesuperior" unicode="&#xb9;" horiz-adv-x="258" 
d="M82 260h99v440h-142v-94h43v-346z" />
    <glyph glyph-name="ordmasculine" unicode="&#xba;" horiz-adv-x="320" 
d="M160 314c17.333 0 34 3.83301 50 11.5s30 19.334 42 35.001s21.5 35.834 28.5 60.501s10.5 54 10.5 88s-3.5 63.333 -10.5 88s-16.5 45 -28.5 61s-26 27.833 -42 35.5s-32.667 11.5 -50 11.5s-33.833 -3.83301 -49.5 -11.5s-29.5 -19.5 -41.5 -35.5
s-21.5 -36.333 -28.5 -61s-10.5 -54 -10.5 -88s3.5 -63.333 10.5 -88s16.5 -44.834 28.5 -60.501s25.833 -27.334 41.5 -35.001s32.167 -11.5 49.5 -11.5zM38 185h245v95h-245v-95zM160 407c-6 0 -11 2.83301 -15 8.5s-7 13.334 -9 23.001s-3.33301 20.334 -4 32.001
s-1 23.5 -1 35.5s0.333008 23.833 1 35.5s2 22.334 4 32.001s5 17.334 9 23.001s9 8.5 15 8.5s11 -2.83301 15 -8.5s7.16699 -13.334 9.5 -23.001s3.83301 -20.334 4.5 -32.001s1 -23.5 1 -35.5s-0.333008 -23.833 -1 -35.5s-2.16699 -22.334 -4.5 -32.001
s-5.5 -17.334 -9.5 -23.001s-9 -8.5 -15 -8.5z" />
    <glyph glyph-name="guillemotright" unicode="&#xbb;" horiz-adv-x="464" 
d="M236 0h119l73 238l-73 238h-119l73 -238zM36 0h119l73 238l-73 238h-119l73 -238z" />
    <glyph glyph-name="onequarter" unicode="&#xbc;" horiz-adv-x="632" 
d="M82 260h99v440h-142v-94h43v-346zM136 0h100l222 700h-100zM551 170v273h-80l-144 -295v-61h132v-87h92v87h37v83h-37zM459 170h-41l41 84v-84z" />
    <glyph glyph-name="onehalf" unicode="&#xbd;" horiz-adv-x="675" 
d="M82 260h99v440h-142v-94h43v-346zM136 0h100l222 700h-100zM396 0l228.001 -0.000976562v92h-95l13 25c19.333 37.333 35.666 72.5 48.999 105.5s20 67.167 20 102.5c0 36 -10.167 64.667 -30.5 86s-49.5 32 -87.5 32c-14 0 -29.333 -2 -46 -6s-33.667 -10.333 -51 -19
l27 -87c14 5.33301 25.667 9 35 11s17.666 3 24.999 3c10.667 0 18.334 -2.5 23.001 -7.5s7 -11.5 7 -19.5c0 -19.333 -6 -43.666 -18 -72.999s-29.667 -67 -53 -113l-46 -92v-40z" />
    <glyph glyph-name="threequarters" unicode="&#xbe;" horiz-adv-x="632" 
d="M37 256c67.333 0 120 13.332 158 39.999s57 69.334 57 128.001c0 18.667 -2.5 35 -7.5 49s-11.5 26 -19.5 36s-16.833 18.333 -26.5 25s-18.834 12 -27.501 16l68 111l1 39h-206v-95h80l-45 -69v-39c26.667 -4 47.334 -12.167 62.001 -24.5s22 -27.5 22 -45.5
c0 -10 -1.33301 -19.5 -4 -28.5s-8.33398 -17 -17.001 -24s-20.667 -12.5 -36 -16.5s-35.666 -6 -60.999 -6zM159 -0.000976562h100l222 700h-100zM564 169.999v273h-80l-144 -295v-61h132v-87h92v87h37v83h-37zM472 169.999h-41l41 84v-84z" />
    <glyph glyph-name="questiondown" unicode="&#xbf;" horiz-adv-x="398" 
d="M238 346c23.333 0 43.333 8.33301 60 25s25 37 25 61c0 26.667 -8.33301 48.167 -25 64.5s-36.667 24.5 -60 24.5c-24.667 0 -45.334 -8.16699 -62.001 -24.5s-25 -37.833 -25 -64.5c0 -24 8.33301 -44.333 25 -61s37.334 -25 62.001 -25zM267 -196
c17.333 0 34.0029 1.00391 50.0029 3.00391s29.667 4.66699 41 8l-11 120c-10.667 -1.33301 -21 -2.5 -31 -3.5s-19.667 -1.5 -29 -1.5c-36.667 0.666992 -65.834 10 -87.501 28s-32.5 42.333 -32.5 73c0 13.333 2.16699 26.5 6.5 39.5s11.5 25 21.5 36s23.5 20.5 40.5 28.5
s38.5 13.667 64.5 17v144h-125v-62c-15.333 -5.33301 -31.333 -13 -48 -23s-31.667 -23.333 -45 -40s-24.333 -37.334 -33 -62.001s-13 -54.334 -13 -89.001c0 -42 7.33301 -76.833 22 -104.5s33.167 -49.834 55.5 -66.501s47.166 -28.334 74.499 -35.001
s53.666 -10 78.999 -10z" />
    <glyph glyph-name="Agrave" unicode="&#xc0;" horiz-adv-x="424" 
d="M149 103h117l24 -103h135l-179 708h-68l-179 -708h126zM241 218h-68l34 184zM170 734h110l-43 186h-139z" />
    <glyph glyph-name="Aacute" unicode="&#xc1;" horiz-adv-x="424" 
d="M149 103h117l24 -103h135l-179 708h-68l-179 -708h126zM241 218h-68l34 184zM142 734h109l73 186h-139z" />
    <glyph glyph-name="Acircumflex" unicode="&#xc2;" horiz-adv-x="424" 
d="M149 103h117l24 -103h135l-179 708h-68l-179 -708h126zM241 218h-68l34 184zM77 734h90l45 51l45 -51h88l-113 206h-42z" />
    <glyph glyph-name="Atilde" unicode="&#xc3;" horiz-adv-x="424" 
d="M149 103h117l24 -103h135l-179 708h-68l-179 -708h126zM241 218h-68l34 184zM57 757l97.002 -21.002c3.33301 18.667 6.66602 30.5 9.99902 35.5s8.33301 7.5 15 7.5c4 0 8.83301 -2.16699 14.5 -6.5s12.167 -9 19.5 -14s15.5 -9.5 24.5 -13.5s18.833 -6 29.5 -6
c20.667 0 39.5 11.333 56.5 34s30.833 62.667 41.5 120l-98 19c-4 -18.667 -7.66699 -30.667 -11 -36s-8.66602 -8 -15.999 -8c-4 0 -8.66699 2 -14 6l-18.5 13.5c-7 5 -14.833 9.5 -23.5 13.5s-18.334 6 -29.001 6c-8.66699 0 -17.667 -2.33301 -27 -7
s-18.333 -12.667 -27 -24s-16.834 -26.666 -24.501 -45.999s-14.167 -43.666 -19.5 -72.999z" />
    <glyph glyph-name="Adieresis" unicode="&#xc4;" horiz-adv-x="424" 
d="M354 593c14 0 26.667 5.33301 38 16s17 23 17 37c0 16 -5.66699 29.833 -17 41.5s-24 17.5 -38 17.5c-15.333 0 -28.333 -5.83301 -39 -17.5s-16 -25.5 -16 -41.5c0 -14 5.33301 -26.333 16 -37s23.667 -16 39 -16zM71 593c14 0 26.667 5.33301 38 16s17 23 17 37
c0 16 -5.66699 29.833 -17 41.5s-24 17.5 -38 17.5c-15.333 0 -28.333 -5.83301 -39 -17.5s-16 -25.5 -16 -41.5c0 -14 5.33301 -26.333 16 -37s23.667 -16 39 -16zM149 103h117l24 -103h135l-179 708h-68l-179 -708h126zM241 218h-68l34 184z" />
    <glyph glyph-name="Aring" unicode="&#xc5;" horiz-adv-x="424" 
d="M149 103h117.001l24 -103h135l-166 657c12 9.33301 22.167 22.333 30.5 39s12.5 36.667 12.5 60c0 20 -2.83301 37.333 -8.5 52s-13 27 -22 37s-18.833 17.5 -29.5 22.5s-21.334 7.5 -32.001 7.5c-10 0 -20.5 -2.5 -31.5 -7.5s-21 -12.5 -30 -22.5
s-16.5 -22.333 -22.5 -37s-9 -32 -9 -52c0 -24.667 4.5 -45.5 13.5 -62.5s20.167 -30.167 33.5 -39.5l-165 -654h126zM210.001 709c-8 0 -15.833 3.66699 -23.5 11s-11.5 19.333 -11.5 36c0 17.333 3.83301 30 11.5 38s15.5 12 23.5 12s15.667 -4 23 -12s11 -20.667 11 -38
c0 -16.667 -3.66699 -28.667 -11 -36s-15 -11 -23 -11zM241.001 218h-68l34 184z" />
    <glyph glyph-name="AE" unicode="&#xc6;" horiz-adv-x="613" 
d="M-4 0h128l37 101h134v-101h299v120h-173v173h126v126h-126v160h167v126h-326zM202 216l93 259v-259h-93z" />
    <glyph glyph-name="Ccedilla" unicode="&#xc7;" horiz-adv-x="346" 
d="M157 27l-62.9961 -180.002h131l22 151c5.33301 -0.666992 10.166 -1.16699 14.499 -1.5s9.16602 -0.5 14.499 -0.5c18.667 0 36.667 2 54 6l-16 125c-11.333 -2 -21.333 -3 -30 -3c-23.333 0 -43.5 5.83301 -60.5 17.5s-31 27.834 -42 48.501
s-19.167 44.834 -24.5 72.501s-8 57.167 -8 88.5c0 32 2.66699 61.667 8 89s13.5 51 24.5 71s25.167 35.833 42.5 47.5s37.666 17.5 60.999 17.5c9.33301 0 19 -1 29 -3l16 130c-17.333 4 -35.333 6 -54 6c-30 0 -60.5 -5.83301 -91.5 -17.5s-58.833 -31.167 -83.5 -58.5
s-44.834 -63.833 -60.501 -109.5s-23.5 -102.5 -23.5 -170.5c0 -46 3.66699 -86.667 11 -122s17.333 -66.333 30 -93s27.5 -49 44.5 -67s35.167 -32.667 54.5 -44z" />
    <glyph glyph-name="Egrave" unicode="&#xc8;" horiz-adv-x="364" 
d="M41 0h304v120h-173v173h126v126h-126v160h167v126h-298v-705zM144 734h110l-43 186h-139z" />
    <glyph glyph-name="Eacute" unicode="&#xc9;" horiz-adv-x="364" 
d="M41 0h304v120h-173v173h126v126h-126v160h167v126h-298v-705zM116 734h109l73 186h-139z" />
    <glyph glyph-name="Ecircumflex" unicode="&#xca;" horiz-adv-x="364" 
d="M41 0h304v120h-173v173h126v126h-126v160h167v126h-298v-705zM51 734h90l45 51l45 -51h88l-113 206h-42z" />
    <glyph glyph-name="Edieresis" unicode="&#xcb;" horiz-adv-x="364" 
d="M41 0h304v120h-173v173h126v126h-126v160h167v126h-298v-705zM263 743c8.66699 0 17 1.83203 25 5.49902s15.167 8.5 21.5 14.5s11.5 13 15.5 21s6 16.333 6 25c0 20 -7 37 -21 51s-29.667 21 -47 21c-18.667 0 -34.667 -7 -48 -21s-20 -31 -20 -51
c0 -17.333 6.66699 -32.666 20 -45.999s29.333 -20 48 -20zM108 742.999c8.66699 0 17 1.83203 25 5.49902s15.167 8.5 21.5 14.5s11.5 13 15.5 21s6 16.333 6 25c0 20 -7 37 -21 51s-29.667 21 -47 21c-18.667 0 -34.667 -7 -48 -21s-20 -31 -20 -51
c0 -17.333 6.66699 -32.666 20 -45.999s29.333 -20 48 -20z" />
    <glyph glyph-name="Igrave" unicode="&#xcc;" horiz-adv-x="219" 
d="M44 0h132v705h-132v-705zM59 734h110l-43 186h-139z" />
    <glyph glyph-name="Iacute" unicode="&#xcd;" horiz-adv-x="219" 
d="M44 0h132v705h-132v-705zM51 734h109l73 186h-139z" />
    <glyph glyph-name="Icircumflex" unicode="&#xce;" horiz-adv-x="219" 
d="M44 0h132v705h-132v-705zM-24 734h90l45 51l45 -51h88l-113 206h-42z" />
    <glyph glyph-name="Idieresis" unicode="&#xcf;" horiz-adv-x="219" 
d="M44 0h132v705h-132v-705zM188 743c8.66699 0 17 1.83203 25 5.49902s15.167 8.5 21.5 14.5s11.5 13 15.5 21s6 16.333 6 25c0 20 -7 37 -21 51s-29.667 21 -47 21c-18.667 0 -34.667 -7 -48 -21s-20 -31 -20 -51c0 -17.333 6.66699 -32.666 20 -45.999s29.333 -20 48 -20
zM33 742.999c8.66699 0 17 1.83203 25 5.49902s15.167 8.5 21.5 14.5s11.5 13 15.5 21s6 16.333 6 25c0 20 -7 37 -21 51s-29.667 21 -47 21c-18.667 0 -34.667 -7 -48 -21s-20 -31 -20 -51c0 -17.333 6.66699 -32.666 20 -45.999s29.333 -20 48 -20z" />
    <glyph glyph-name="Eth" unicode="&#xd0;" horiz-adv-x="428" 
d="M41 296v-296h45c47.333 0 90.833 6 130.5 18s74 31.667 103 59s51.5 63.333 67.5 108s24 100 24 166s-8 121.5 -24 166.5s-38.5 81.333 -67.5 109s-63.333 47.667 -103 60s-83.167 18.5 -130.5 18.5h-45v-292h-31v-117h31zM173 413v148.998
c36.667 -3.33301 63.167 -24 79.5 -62s24.5 -88.667 24.5 -152s-8 -113.666 -24 -150.999s-42.667 -57.666 -80 -60.999v160h72v117h-72z" />
    <glyph glyph-name="Ntilde" unicode="&#xd1;" horiz-adv-x="457" 
d="M359 0h57v705h-118v-327l-188 327h-69v-705h118v363zM74 757l97.002 -21.002c3.33301 18.667 6.66602 30.5 9.99902 35.5s8.33301 7.5 15 7.5c4 0 8.83301 -2.16699 14.5 -6.5s12.167 -9 19.5 -14s15.5 -9.5 24.5 -13.5s18.833 -6 29.5 -6c20.667 0 39.5 11.333 56.5 34
s30.833 62.667 41.5 120l-98 19c-4 -18.667 -7.66699 -30.667 -11 -36s-8.66602 -8 -15.999 -8c-4 0 -8.66699 2 -14 6l-18.5 13.5c-7 5 -14.833 9.5 -23.5 13.5s-18.334 6 -29.001 6c-8.66699 0 -17.667 -2.33301 -27 -7s-18.333 -12.667 -27 -24
s-16.834 -26.666 -24.501 -45.999s-14.167 -43.666 -19.5 -72.999z" />
    <glyph glyph-name="Ograve" unicode="&#xd2;" horiz-adv-x="447" 
d="M224 -6c28 0 54.333 6 79 18s46 32 64 60s32.167 64.833 42.5 110.5s15.5 102.167 15.5 169.5s-5.16699 124 -15.5 170s-24.5 83 -42.5 111s-39.333 48 -64 60s-51 18 -79 18s-54.333 -6 -79 -18s-46 -32 -64 -60s-32.167 -65 -42.5 -111s-15.5 -102.667 -15.5 -170
s5.16699 -123.833 15.5 -169.5s24.5 -82.5 42.5 -110.5s39.333 -48 64 -60s51 -18 79 -18zM224 118c-12.667 0 -23.334 6 -32.001 18s-15.834 28.5 -21.501 49.5s-9.66699 45.667 -12 74s-3.5 58.833 -3.5 91.5s1.16699 62.834 3.5 90.501s6.33301 51.667 12 72
s12.834 36.333 21.501 48s19.334 17.5 32.001 17.5s23.5 -5.83301 32.5 -17.5s16.167 -27.667 21.5 -48s9.16602 -44.333 11.499 -72s3.5 -57.834 3.5 -90.501s-1.16699 -63.167 -3.5 -91.5s-6.16602 -53 -11.499 -74s-12.5 -37.5 -21.5 -49.5s-19.833 -18 -32.5 -18z
M183 734h110l-43 186h-139z" />
    <glyph glyph-name="Oacute" unicode="&#xd3;" horiz-adv-x="447" 
d="M224 -6c28 0 54.333 6 79 18s46 32 64 60s32.167 64.833 42.5 110.5s15.5 102.167 15.5 169.5s-5.16699 124 -15.5 170s-24.5 83 -42.5 111s-39.333 48 -64 60s-51 18 -79 18s-54.333 -6 -79 -18s-46 -32 -64 -60s-32.167 -65 -42.5 -111s-15.5 -102.667 -15.5 -170
s5.16699 -123.833 15.5 -169.5s24.5 -82.5 42.5 -110.5s39.333 -48 64 -60s51 -18 79 -18zM224 118c-12.667 0 -23.334 6 -32.001 18s-15.834 28.5 -21.501 49.5s-9.66699 45.667 -12 74s-3.5 58.833 -3.5 91.5s1.16699 62.834 3.5 90.501s6.33301 51.667 12 72
s12.834 36.333 21.501 48s19.334 17.5 32.001 17.5s23.5 -5.83301 32.5 -17.5s16.167 -27.667 21.5 -48s9.16602 -44.333 11.499 -72s3.5 -57.834 3.5 -90.501s-1.16699 -63.167 -3.5 -91.5s-6.16602 -53 -11.499 -74s-12.5 -37.5 -21.5 -49.5s-19.833 -18 -32.5 -18z
M155 734h109l73 186h-139z" />
    <glyph glyph-name="Ocircumflex" unicode="&#xd4;" horiz-adv-x="447" 
d="M224 -6c28 0 54.333 6 79 18s46 32 64 60s32.167 64.833 42.5 110.5s15.5 102.167 15.5 169.5s-5.16699 124 -15.5 170s-24.5 83 -42.5 111s-39.333 48 -64 60s-51 18 -79 18s-54.333 -6 -79 -18s-46 -32 -64 -60s-32.167 -65 -42.5 -111s-15.5 -102.667 -15.5 -170
s5.16699 -123.833 15.5 -169.5s24.5 -82.5 42.5 -110.5s39.333 -48 64 -60s51 -18 79 -18zM224 118c-12.667 0 -23.334 6 -32.001 18s-15.834 28.5 -21.501 49.5s-9.66699 45.667 -12 74s-3.5 58.833 -3.5 91.5s1.16699 62.834 3.5 90.501s6.33301 51.667 12 72
s12.834 36.333 21.501 48s19.334 17.5 32.001 17.5s23.5 -5.83301 32.5 -17.5s16.167 -27.667 21.5 -48s9.16602 -44.333 11.499 -72s3.5 -57.834 3.5 -90.501s-1.16699 -63.167 -3.5 -91.5s-6.16602 -53 -11.499 -74s-12.5 -37.5 -21.5 -49.5s-19.833 -18 -32.5 -18z
M90 734h90l45 51l45 -51h88l-113 206h-42z" />
    <glyph glyph-name="Otilde" unicode="&#xd5;" horiz-adv-x="447" 
d="M224 -6c28 0 54.333 6 79 18s46 32 64 60s32.167 64.833 42.5 110.5s15.5 102.167 15.5 169.5s-5.16699 124 -15.5 170s-24.5 83 -42.5 111s-39.333 48 -64 60s-51 18 -79 18s-54.333 -6 -79 -18s-46 -32 -64 -60s-32.167 -65 -42.5 -111s-15.5 -102.667 -15.5 -170
s5.16699 -123.833 15.5 -169.5s24.5 -82.5 42.5 -110.5s39.333 -48 64 -60s51 -18 79 -18zM224 118c-12.667 0 -23.334 6 -32.001 18s-15.834 28.5 -21.501 49.5s-9.66699 45.667 -12 74s-3.5 58.833 -3.5 91.5s1.16699 62.834 3.5 90.501s6.33301 51.667 12 72
s12.834 36.333 21.501 48s19.334 17.5 32.001 17.5s23.5 -5.83301 32.5 -17.5s16.167 -27.667 21.5 -48s9.16602 -44.333 11.499 -72s3.5 -57.834 3.5 -90.501s-1.16699 -63.167 -3.5 -91.5s-6.16602 -53 -11.499 -74s-12.5 -37.5 -21.5 -49.5s-19.833 -18 -32.5 -18z
M70 757l97.002 -21.002c3.33301 18.667 6.66602 30.5 9.99902 35.5s8.33301 7.5 15 7.5c4 0 8.83301 -2.16699 14.5 -6.5s12.167 -9 19.5 -14s15.5 -9.5 24.5 -13.5s18.833 -6 29.5 -6c20.667 0 39.5 11.333 56.5 34s30.833 62.667 41.5 120l-98 19
c-4 -18.667 -7.66699 -30.667 -11 -36s-8.66602 -8 -15.999 -8c-4 0 -8.66699 2 -14 6l-18.5 13.5c-7 5 -14.833 9.5 -23.5 13.5s-18.334 6 -29.001 6c-8.66699 0 -17.667 -2.33301 -27 -7s-18.333 -12.667 -27 -24s-16.834 -26.666 -24.501 -45.999
s-14.167 -43.666 -19.5 -72.999z" />
    <glyph glyph-name="Odieresis" unicode="&#xd6;" horiz-adv-x="447" 
d="M224 -6c28 0 54.333 6 79 18s46 32 64 60s32.167 64.833 42.5 110.5s15.5 102.167 15.5 169.5s-5.16699 124 -15.5 170s-24.5 83 -42.5 111s-39.333 48 -64 60s-51 18 -79 18s-54.333 -6 -79 -18s-46 -32 -64 -60s-32.167 -65 -42.5 -111s-15.5 -102.667 -15.5 -170
s5.16699 -123.833 15.5 -169.5s24.5 -82.5 42.5 -110.5s39.333 -48 64 -60s51 -18 79 -18zM224 118c-12.667 0 -23.334 6 -32.001 18s-15.834 28.5 -21.501 49.5s-9.66699 45.667 -12 74s-3.5 58.833 -3.5 91.5s1.16699 62.834 3.5 90.501s6.33301 51.667 12 72
s12.834 36.333 21.501 48s19.334 17.5 32.001 17.5s23.5 -5.83301 32.5 -17.5s16.167 -27.667 21.5 -48s9.16602 -44.333 11.499 -72s3.5 -57.834 3.5 -90.501s-1.16699 -63.167 -3.5 -91.5s-6.16602 -53 -11.499 -74s-12.5 -37.5 -21.5 -49.5s-19.833 -18 -32.5 -18z
M302 743c8.66699 0 17 1.83203 25 5.49902s15.167 8.5 21.5 14.5s11.5 13 15.5 21s6 16.333 6 25c0 20 -7 37 -21 51s-29.667 21 -47 21c-18.667 0 -34.667 -7 -48 -21s-20 -31 -20 -51c0 -17.333 6.66699 -32.666 20 -45.999s29.333 -20 48 -20zM147 742.999
c8.66699 0 17 1.83203 25 5.49902s15.167 8.5 21.5 14.5s11.5 13 15.5 21s6 16.333 6 25c0 20 -7 37 -21 51s-29.667 21 -47 21c-18.667 0 -34.667 -7 -48 -21s-20 -31 -20 -51c0 -17.333 6.66699 -32.666 20 -45.999s29.333 -20 48 -20z" />
    <glyph glyph-name="multiply" unicode="&#xd7;" horiz-adv-x="383" 
d="M270 331l98 98l-78 79l-99 -99l-98 99l-78 -79l98 -98l-98 -98l78 -79l99 98l98 -98l78 79z" />
    <glyph glyph-name="Oslash" unicode="&#xd8;" horiz-adv-x="447" 
d="M352 653l32 105.998h-76l-18 -60c-21.333 8 -43.333 12 -66 12c-28 0 -54.333 -6 -79 -18s-46 -32 -64 -60s-32.167 -65 -42.5 -111s-15.5 -102.667 -15.5 -170c0 -75.333 6.33301 -137 19 -185s30 -85.667 52 -113l-32 -107h75l18 60c21.333 -8.66699 44.333 -13 69 -13
c28 0 54.333 6 79 18s46 32 64 60s32.167 64.833 42.5 110.5s15.5 102.167 15.5 169.5c0 76.667 -6.5 139.334 -19.5 188.001s-30.833 86.334 -53.5 113.001zM157 261.998c-2 26.667 -3.00098 56.332 -3.00098 88.999s1.16699 63.167 3.5 91.5s6.33301 52.833 12 73.5
s12.834 36.834 21.501 48.501s19.667 17.5 33 17.5c9.33301 0 18.333 -3.66699 27 -11zM289.999 448.996c1.33301 -14.667 2.33203 -30.167 2.99902 -46.5s1 -33.5 1 -51.5c0 -33.333 -1.16699 -64.333 -3.5 -93s-6.16602 -53.5 -11.499 -74.5s-12.5 -37.667 -21.5 -50
s-20.167 -18.5 -33.5 -18.5c-12 0 -22.333 5.33301 -31 16z" />
    <glyph glyph-name="Ugrave" unicode="&#xd9;" horiz-adv-x="449" 
d="M225 -14c36 0 65.833 5.5 89.5 16.5s42.667 28.167 57 51.5s24.5 52.833 30.5 88.5s9 78.167 9 127.5v435h-128v-451c0 -49.333 -3.16699 -86 -9.5 -110s-21.833 -36 -46.5 -36c-12.667 0 -22.667 3 -30 9s-13 15 -17 27s-6.5 27.167 -7.5 45.5s-1.5 39.833 -1.5 64.5
v451h-132v-435c0 -50 3 -92.833 9 -128.5s16 -65 30 -88s33 -40 57 -51s54 -16.5 90 -16.5zM184 734h110l-43 186h-139z" />
    <glyph glyph-name="Uacute" unicode="&#xda;" horiz-adv-x="449" 
d="M225 -14c36 0 65.833 5.5 89.5 16.5s42.667 28.167 57 51.5s24.5 52.833 30.5 88.5s9 78.167 9 127.5v435h-128v-451c0 -49.333 -3.16699 -86 -9.5 -110s-21.833 -36 -46.5 -36c-12.667 0 -22.667 3 -30 9s-13 15 -17 27s-6.5 27.167 -7.5 45.5s-1.5 39.833 -1.5 64.5
v451h-132v-435c0 -50 3 -92.833 9 -128.5s16 -65 30 -88s33 -40 57 -51s54 -16.5 90 -16.5zM156 734h109l73 186h-139z" />
    <glyph glyph-name="Ucircumflex" unicode="&#xdb;" horiz-adv-x="449" 
d="M225 -14c36 0 65.833 5.5 89.5 16.5s42.667 28.167 57 51.5s24.5 52.833 30.5 88.5s9 78.167 9 127.5v435h-128v-451c0 -49.333 -3.16699 -86 -9.5 -110s-21.833 -36 -46.5 -36c-12.667 0 -22.667 3 -30 9s-13 15 -17 27s-6.5 27.167 -7.5 45.5s-1.5 39.833 -1.5 64.5
v451h-132v-435c0 -50 3 -92.833 9 -128.5s16 -65 30 -88s33 -40 57 -51s54 -16.5 90 -16.5zM91 734h90l45 51l45 -51h88l-113 206h-42z" />
    <glyph glyph-name="Udieresis" unicode="&#xdc;" horiz-adv-x="449" 
d="M225 -14c36 0 65.833 5.5 89.5 16.5s42.667 28.167 57 51.5s24.5 52.833 30.5 88.5s9 78.167 9 127.5v435h-128v-451c0 -49.333 -3.16699 -86 -9.5 -110s-21.833 -36 -46.5 -36c-12.667 0 -22.667 3 -30 9s-13 15 -17 27s-6.5 27.167 -7.5 45.5s-1.5 39.833 -1.5 64.5
v451h-132v-435c0 -50 3 -92.833 9 -128.5s16 -65 30 -88s33 -40 57 -51s54 -16.5 90 -16.5zM303 743c8.66699 0 17 1.83203 25 5.49902s15.167 8.5 21.5 14.5s11.5 13 15.5 21s6 16.333 6 25c0 20 -7 37 -21 51s-29.667 21 -47 21c-18.667 0 -34.667 -7 -48 -21
s-20 -31 -20 -51c0 -17.333 6.66699 -32.666 20 -45.999s29.333 -20 48 -20zM148 742.999c8.66699 0 17 1.83203 25 5.49902s15.167 8.5 21.5 14.5s11.5 13 15.5 21s6 16.333 6 25c0 20 -7 37 -21 51s-29.667 21 -47 21c-18.667 0 -34.667 -7 -48 -21s-20 -31 -20 -51
c0 -17.333 6.66699 -32.666 20 -45.999s29.333 -20 48 -20z" />
    <glyph glyph-name="Yacute" unicode="&#xdd;" horiz-adv-x="406" 
d="M138 250v-250h131v253l143 452h-120l-80 -271l-80 271h-138zM139 734h109l73 186h-139z" />
    <glyph glyph-name="Thorn" unicode="&#xde;" horiz-adv-x="395" 
d="M41 0l129.001 0.000976562v90c29.333 3.33301 57.166 12 83.499 26s49.333 32.833 69 56.5s35.334 52.167 47.001 85.5s17.5 71 17.5 113c0 40.667 -5.16699 76.5 -15.5 107.5s-25 57.167 -44 78.5s-41.833 38.166 -68.5 50.499s-56.334 20.5 -89.001 24.5v73h-129v-705z
M170.001 213.001v296.004c16.667 -0.666992 30.5 -5.83398 41.5 -15.501s20 -21.834 27 -36.501s12 -30.667 15 -48s4.5 -33.333 4.5 -48c0 -15.333 -1.5 -31.5 -4.5 -48.5s-8 -32.833 -15 -47.5s-16 -26.834 -27 -36.501s-24.833 -14.834 -41.5 -15.501z" />
    <glyph glyph-name="germandbls" unicode="&#xdf;" horiz-adv-x="401" 
d="M159 360l75.001 0.00390625l-47 -135v-46c10 -4.66699 20 -10.167 30 -16.5s19 -14 27 -23s14.333 -19.5 19 -31.5s7 -25.667 7 -41c0 -16.667 -2.66699 -32.334 -8 -47.001s-13.833 -27.667 -25.5 -39s-26.834 -20.5 -45.501 -27.5s-41.334 -11.5 -68.001 -13.5l7 -116
c36 1.33301 70 6.83301 102 16.5s60 24.167 84 43.5s43 43.5 57 72.5s21 63.5 21 103.5c0 28.667 -2.33301 53.167 -7 73.5s-11 37.666 -19 51.999s-17.667 26.166 -29 35.499s-23.666 18 -36.999 26l68 173v56h-211v60c0 34.667 13.333 52 40 52
c7.33301 0 17.666 -1.66699 30.999 -5l19 116c-8 3.33301 -18 6 -30 8s-24.667 3 -38 3c-16.667 0 -33.667 -2.16699 -51 -6.5s-33.166 -12.833 -47.499 -25.5s-26 -30.334 -35 -53.001s-13.5 -52 -13.5 -88v-537h125v360z" />
    <glyph glyph-name="agrave" unicode="&#xe0;" horiz-adv-x="336" 
d="M185 302c-24.667 -4.66699 -47.5 -11 -68.5 -19s-39.333 -19.167 -55 -33.5s-27.834 -32.166 -36.501 -53.499s-13 -47.666 -13 -78.999c0 -40 9.5 -70.5 28.5 -91.5s41.5 -31.5 67.5 -31.5c16.667 0 31.834 3.33301 45.501 10s25.834 13.667 36.501 21l2 -25h114v291
c0 32.667 -2 60.667 -6 84s-11 42.5 -21 57.5s-23.167 26 -39.5 33s-36.5 10.5 -60.5 10.5c-14 0 -27.833 -0.833008 -41.5 -2.5s-26.167 -3.83398 -37.5 -6.50098s-21.5 -5.33398 -30.5 -8.00098s-15.833 -5 -20.5 -7l24 -106c10 3.33301 22.167 6.5 36.5 9.5
s27.166 4.5 38.499 4.5c15.333 0 25.333 -3.83301 30 -11.5s7 -21.167 7 -40.5v-6zM185 103c-10 -4.66699 -20 -6.99707 -30 -6.99707c-7.33301 0 -13.833 3.16699 -19.5 9.5s-8.5 15.166 -8.5 26.499c0 15.333 4.83301 29.166 14.5 41.499s24.167 21.166 43.5 26.499v-97z
M127 519.003h110l-43 186h-139z" />
    <glyph glyph-name="aacute" unicode="&#xe1;" horiz-adv-x="336" 
d="M185 302c-24.667 -4.66699 -47.5 -11 -68.5 -19s-39.333 -19.167 -55 -33.5s-27.834 -32.166 -36.501 -53.499s-13 -47.666 -13 -78.999c0 -40 9.5 -70.5 28.5 -91.5s41.5 -31.5 67.5 -31.5c16.667 0 31.834 3.33301 45.501 10s25.834 13.667 36.501 21l2 -25h114v291
c0 32.667 -2 60.667 -6 84s-11 42.5 -21 57.5s-23.167 26 -39.5 33s-36.5 10.5 -60.5 10.5c-14 0 -27.833 -0.833008 -41.5 -2.5s-26.167 -3.83398 -37.5 -6.50098s-21.5 -5.33398 -30.5 -8.00098s-15.833 -5 -20.5 -7l24 -106c10 3.33301 22.167 6.5 36.5 9.5
s27.166 4.5 38.499 4.5c15.333 0 25.333 -3.83301 30 -11.5s7 -21.167 7 -40.5v-6zM185 103c-10 -4.66699 -20 -6.99707 -30 -6.99707c-7.33301 0 -13.833 3.16699 -19.5 9.5s-8.5 15.166 -8.5 26.499c0 15.333 4.83301 29.166 14.5 41.499s24.167 21.166 43.5 26.499v-97z
M99 519.003h109l73 186h-139z" />
    <glyph glyph-name="acircumflex" unicode="&#xe2;" horiz-adv-x="336" 
d="M185 302c-24.667 -4.66699 -47.5 -11 -68.5 -19s-39.333 -19.167 -55 -33.5s-27.834 -32.166 -36.501 -53.499s-13 -47.666 -13 -78.999c0 -40 9.5 -70.5 28.5 -91.5s41.5 -31.5 67.5 -31.5c16.667 0 31.834 3.33301 45.501 10s25.834 13.667 36.501 21l2 -25h114v291
c0 32.667 -2 60.667 -6 84s-11 42.5 -21 57.5s-23.167 26 -39.5 33s-36.5 10.5 -60.5 10.5c-14 0 -27.833 -0.833008 -41.5 -2.5s-26.167 -3.83398 -37.5 -6.50098s-21.5 -5.33398 -30.5 -8.00098s-15.833 -5 -20.5 -7l24 -106c10 3.33301 22.167 6.5 36.5 9.5
s27.166 4.5 38.499 4.5c15.333 0 25.333 -3.83301 30 -11.5s7 -21.167 7 -40.5v-6zM185 103c-10 -4.66699 -20 -6.99707 -30 -6.99707c-7.33301 0 -13.833 3.16699 -19.5 9.5s-8.5 15.166 -8.5 26.499c0 15.333 4.83301 29.166 14.5 41.499s24.167 21.166 43.5 26.499v-97z
M34 519.003h90l45 51l45 -51h88l-113 206h-42z" />
    <glyph glyph-name="atilde" unicode="&#xe3;" horiz-adv-x="336" 
d="M185 302c-24.667 -4.66699 -47.5 -11 -68.5 -19s-39.333 -19.167 -55 -33.5s-27.834 -32.166 -36.501 -53.499s-13 -47.666 -13 -78.999c0 -40 9.5 -70.5 28.5 -91.5s41.5 -31.5 67.5 -31.5c16.667 0 31.834 3.33301 45.501 10s25.834 13.667 36.501 21l2 -25h114v291
c0 32.667 -2 60.667 -6 84s-11 42.5 -21 57.5s-23.167 26 -39.5 33s-36.5 10.5 -60.5 10.5c-14 0 -27.833 -0.833008 -41.5 -2.5s-26.167 -3.83398 -37.5 -6.50098s-21.5 -5.33398 -30.5 -8.00098s-15.833 -5 -20.5 -7l24 -106c10 3.33301 22.167 6.5 36.5 9.5
s27.166 4.5 38.499 4.5c15.333 0 25.333 -3.83301 30 -11.5s7 -21.167 7 -40.5v-6zM185 103c-10 -4.66699 -20 -6.99707 -30 -6.99707c-7.33301 0 -13.833 3.16699 -19.5 9.5s-8.5 15.166 -8.5 26.499c0 15.333 4.83301 29.166 14.5 41.499s24.167 21.166 43.5 26.499v-97z
M15 542.003l97.002 -21.002c3.33301 18.667 6.66602 30.5 9.99902 35.5s8.33301 7.5 15 7.5c4 0 8.83301 -2.16699 14.5 -6.5s12.167 -9 19.5 -14s15.5 -9.5 24.5 -13.5s18.833 -6 29.5 -6c20.667 0 39.5 11.333 56.5 34s30.833 62.667 41.5 120l-98 19
c-4 -18.667 -7.66699 -30.667 -11 -36s-8.66602 -8 -15.999 -8c-4 0 -8.66699 2 -14 6l-18.5 13.5c-7 5 -14.833 9.5 -23.5 13.5s-18.334 6 -29.001 6c-8.66699 0 -17.667 -2.33301 -27 -7s-18.333 -12.667 -27 -24s-16.834 -26.666 -24.501 -45.999
s-14.167 -43.666 -19.5 -72.999z" />
    <glyph glyph-name="adieresis" unicode="&#xe4;" horiz-adv-x="336" 
d="M185 302c-24.667 -4.66699 -47.5 -11 -68.5 -19s-39.333 -19.167 -55 -33.5s-27.834 -32.166 -36.501 -53.499s-13 -47.666 -13 -78.999c0 -40 9.5 -70.5 28.5 -91.5s41.5 -31.5 67.5 -31.5c16.667 0 31.834 3.33301 45.501 10s25.834 13.667 36.501 21l2 -25h114v291
c0 32.667 -2 60.667 -6 84s-11 42.5 -21 57.5s-23.167 26 -39.5 33s-36.5 10.5 -60.5 10.5c-14 0 -27.833 -0.833008 -41.5 -2.5s-26.167 -3.83398 -37.5 -6.50098s-21.5 -5.33398 -30.5 -8.00098s-15.833 -5 -20.5 -7l24 -106c10 3.33301 22.167 6.5 36.5 9.5
s27.166 4.5 38.499 4.5c15.333 0 25.333 -3.83301 30 -11.5s7 -21.167 7 -40.5v-6zM185 103c-10 -4.66699 -20 -6.99707 -30 -6.99707c-7.33301 0 -13.833 3.16699 -19.5 9.5s-8.5 15.166 -8.5 26.499c0 15.333 4.83301 29.166 14.5 41.499s24.167 21.166 43.5 26.499v-97z
M246 528.003c8.66699 0 17 1.83203 25 5.49902s15.167 8.5 21.5 14.5s11.5 13 15.5 21s6 16.333 6 25c0 20 -7 37 -21 51s-29.667 21 -47 21c-18.667 0 -34.667 -7 -48 -21s-20 -31 -20 -51c0 -17.333 6.66699 -32.666 20 -45.999s29.333 -20 48 -20zM91 528.002
c8.66699 0 17 1.83203 25 5.49902s15.167 8.5 21.5 14.5s11.5 13 15.5 21s6 16.333 6 25c0 20 -7 37 -21 51s-29.667 21 -47 21c-18.667 0 -34.667 -7 -48 -21s-20 -31 -20 -51c0 -17.333 6.66699 -32.666 20 -45.999s29.333 -20 48 -20z" />
    <glyph glyph-name="aring" unicode="&#xe5;" horiz-adv-x="336" 
d="M185 302c-24.667 -4.66699 -47.5 -11 -68.5 -19s-39.333 -19.167 -55 -33.5s-27.834 -32.166 -36.501 -53.499s-13 -47.666 -13 -78.999c0 -40 9.5 -70.5 28.5 -91.5s41.5 -31.5 67.5 -31.5c16.667 0 31.834 3.33301 45.501 10s25.834 13.667 36.501 21l2 -25h114v291
c0 32.667 -2 60.667 -6 84s-11 42.5 -21 57.5s-23.167 26 -39.5 33s-36.5 10.5 -60.5 10.5c-14 0 -27.833 -0.833008 -41.5 -2.5s-26.167 -3.83398 -37.5 -6.50098s-21.5 -5.33398 -30.5 -8.00098s-15.833 -5 -20.5 -7l24 -106c10 3.33301 22.167 6.5 36.5 9.5
s27.166 4.5 38.499 4.5c15.333 0 25.333 -3.83301 30 -11.5s7 -21.167 7 -40.5v-6zM185 103c-10 -4.66699 -20 -6.99707 -30 -6.99707c-7.33301 0 -13.833 3.16699 -19.5 9.5s-8.5 15.166 -8.5 26.499c0 15.333 4.83301 29.166 14.5 41.499s24.167 21.166 43.5 26.499v-97z
M169 517.003c10 0 20.501 2.5 31.501 7.5s21 12.333 30 22s16.333 21.834 22 36.501s8.5 31.667 8.5 51c0 20 -2.83301 37.333 -8.5 52s-13 27 -22 37s-18.833 17.5 -29.5 22.5s-21.334 7.5 -32.001 7.5c-10 0 -20.5 -2.5 -31.5 -7.5s-21 -12.5 -30 -22.5
s-16.5 -22.333 -22.5 -37s-9 -32 -9 -52c0 -19.333 3 -36.333 9 -51s13.5 -26.834 22.5 -36.501s19 -17 30 -22s21.5 -7.5 31.5 -7.5zM169.001 587.003c-8 0 -15.833 3.66699 -23.5 11s-11.5 19.333 -11.5 36c0 17.333 3.83301 30 11.5 38s15.5 12 23.5 12s15.667 -4 23 -12
s11 -20.667 11 -38c0 -16.667 -3.66699 -28.667 -11 -36s-15 -11 -23 -11z" />
    <glyph glyph-name="ae" unicode="&#xe6;" horiz-adv-x="497" 
d="M118 -6c25.333 0 48.168 5.33301 68.501 16s37.166 22.334 50.499 35.001c29.333 -34 68.333 -51 117 -51c22.667 0 44.5 3 65.5 9s37.5 12.667 49.5 20l-29 99c-9.33301 -4 -21.166 -7.83301 -35.499 -11.5s-27.833 -5.5 -40.5 -5.5c-17.333 0 -30.833 6.66699 -40.5 20
s-16.167 32.666 -19.5 57.999h172c0 53.333 -2.5 99 -7.5 137s-13 69 -24 93s-25.333 41.5 -43 52.5s-39.167 16.5 -64.5 16.5c-14 0 -27.5 -2.5 -40.5 -7.5s-25.5 -13.833 -37.5 -26.5c-9.33301 10.667 -20.5 18 -33.5 22s-28.5 6 -46.5 6
c-14 0 -27.833 -0.833008 -41.5 -2.5s-26.167 -3.83398 -37.5 -6.50098s-21.5 -5.33398 -30.5 -8.00098s-15.833 -5 -20.5 -7l24 -98c10 3.33301 22.167 6.5 36.5 9.5s27.166 4.5 38.499 4.5c15.333 0 24.833 -4.16699 28.5 -12.5s5.5 -21.5 5.5 -39.5v-14
c-23.333 -4.66699 -45.333 -11 -66 -19s-38.667 -19.167 -54 -33.5s-27.5 -32.166 -36.5 -53.499s-13.5 -47.666 -13.5 -78.999c0 -40 9.66699 -70.5 29 -91.5s45 -31.5 77 -31.5zM301.002 275c0.666992 32 3 56.168 7 72.501s12.333 24.5 25 24.5
c6 0 10.833 -2.66699 14.5 -8s6.5 -12.5 8.5 -21.5s3.33301 -19.333 4 -31s1 -23.834 1 -36.501h-60zM155.002 96.001c-7.33301 0 -13.833 3.16699 -19.5 9.5s-8.5 15.166 -8.5 26.499c0 15.333 4.83301 29.333 14.5 42s23.5 21.667 41.5 27
c1.33301 -17.333 3.33301 -33.166 6 -47.499s6 -27.833 10 -40.5c-6.66699 -5.33301 -13.667 -9.5 -21 -12.5s-15 -4.5 -23 -4.5z" />
    <glyph glyph-name="ccedilla" unicode="&#xe7;" horiz-adv-x="280" 
d="M115 11l-57 -163.999h131l22 148c11.333 1.33301 21.166 3.33301 29.499 6s16.833 6 25.5 10l-31 101c-8 -2.66699 -14.5 -4.5 -19.5 -5.5s-11.167 -1.5 -18.5 -1.5c-9.33301 0 -17.333 3.83301 -24 11.5s-12.167 17.5 -16.5 29.5s-7.5 25.667 -9.5 41s-3 31 -3 47
s1 31.667 3 47s5.16699 29 9.5 41s9.83301 21.833 16.5 29.5s14.667 11.5 24 11.5c7.33301 0 13.5 -0.5 18.5 -1.5s11.5 -2.83301 19.5 -5.5l31 109c-11.333 5.33301 -22.666 9.5 -33.999 12.5s-25.333 4.5 -42 4.5c-24.667 0 -47.5 -4.83301 -68.5 -14.5
s-39.167 -24.5 -54.5 -44.5s-27.333 -45.333 -36 -76s-13 -67.334 -13 -110.001c0 -62 8.66699 -111.333 26 -148s41 -62.667 71 -78z" />
    <glyph glyph-name="egrave" unicode="&#xe8;" horiz-adv-x="335" 
d="M140 183l174.001 0.00195312c0 53.333 -2.5 99 -7.5 137s-13 69 -24 93s-25.333 41.5 -43 52.5s-39.167 16.5 -64.5 16.5c-20 0 -39.5 -4.83301 -58.5 -14.5s-35.667 -24.5 -50 -44.5s-26 -45.333 -35 -76s-13.5 -67.334 -13.5 -110.001c0 -42 4.33301 -78.333 13 -109
s20.667 -56 36 -76s33.666 -34.667 54.999 -44s44.666 -14 69.999 -14c22.667 0 44.5 3 65.5 9s37.5 12.667 49.5 20l-29 99c-9.33301 -4 -21.166 -7.83301 -35.499 -11.5s-27.833 -5.5 -40.5 -5.5c-17.333 0 -31 6.66699 -41 20s-17 32.666 -21 57.999zM137.001 275.002
c1.33301 32 4.16699 56.168 8.5 72.501s12.833 24.5 25.5 24.5c6 0 10.833 -2.66699 14.5 -8s6.5 -12.5 8.5 -21.5s3.33301 -19.333 4 -31s1 -23.834 1 -36.501h-62zM123.002 519.003h110l-43 186h-139z" />
    <glyph glyph-name="eacute" unicode="&#xe9;" horiz-adv-x="335" 
d="M140 183l174.001 0.00195312c0 53.333 -2.5 99 -7.5 137s-13 69 -24 93s-25.333 41.5 -43 52.5s-39.167 16.5 -64.5 16.5c-20 0 -39.5 -4.83301 -58.5 -14.5s-35.667 -24.5 -50 -44.5s-26 -45.333 -35 -76s-13.5 -67.334 -13.5 -110.001c0 -42 4.33301 -78.333 13 -109
s20.667 -56 36 -76s33.666 -34.667 54.999 -44s44.666 -14 69.999 -14c22.667 0 44.5 3 65.5 9s37.5 12.667 49.5 20l-29 99c-9.33301 -4 -21.166 -7.83301 -35.499 -11.5s-27.833 -5.5 -40.5 -5.5c-17.333 0 -31 6.66699 -41 20s-17 32.666 -21 57.999zM137.001 275.002
c1.33301 32 4.16699 56.168 8.5 72.501s12.833 24.5 25.5 24.5c6 0 10.833 -2.66699 14.5 -8s6.5 -12.5 8.5 -21.5s3.33301 -19.333 4 -31s1 -23.834 1 -36.501h-62zM95.002 519.003h109l73 186h-139z" />
    <glyph glyph-name="ecircumflex" unicode="&#xea;" horiz-adv-x="335" 
d="M140 183l174.001 0.00195312c0 53.333 -2.5 99 -7.5 137s-13 69 -24 93s-25.333 41.5 -43 52.5s-39.167 16.5 -64.5 16.5c-20 0 -39.5 -4.83301 -58.5 -14.5s-35.667 -24.5 -50 -44.5s-26 -45.333 -35 -76s-13.5 -67.334 -13.5 -110.001c0 -42 4.33301 -78.333 13 -109
s20.667 -56 36 -76s33.666 -34.667 54.999 -44s44.666 -14 69.999 -14c22.667 0 44.5 3 65.5 9s37.5 12.667 49.5 20l-29 99c-9.33301 -4 -21.166 -7.83301 -35.499 -11.5s-27.833 -5.5 -40.5 -5.5c-17.333 0 -31 6.66699 -41 20s-17 32.666 -21 57.999zM137.001 275.002
c1.33301 32 4.16699 56.168 8.5 72.501s12.833 24.5 25.5 24.5c6 0 10.833 -2.66699 14.5 -8s6.5 -12.5 8.5 -21.5s3.33301 -19.333 4 -31s1 -23.834 1 -36.501h-62zM30.002 519.003h90l45 51l45 -51h88l-113 206h-42z" />
    <glyph glyph-name="edieresis" unicode="&#xeb;" horiz-adv-x="335" 
d="M140 183l174.001 0.00195312c0 53.333 -2.5 99 -7.5 137s-13 69 -24 93s-25.333 41.5 -43 52.5s-39.167 16.5 -64.5 16.5c-20 0 -39.5 -4.83301 -58.5 -14.5s-35.667 -24.5 -50 -44.5s-26 -45.333 -35 -76s-13.5 -67.334 -13.5 -110.001c0 -42 4.33301 -78.333 13 -109
s20.667 -56 36 -76s33.666 -34.667 54.999 -44s44.666 -14 69.999 -14c22.667 0 44.5 3 65.5 9s37.5 12.667 49.5 20l-29 99c-9.33301 -4 -21.166 -7.83301 -35.499 -11.5s-27.833 -5.5 -40.5 -5.5c-17.333 0 -31 6.66699 -41 20s-17 32.666 -21 57.999zM137.001 275.002
c1.33301 32 4.16699 56.168 8.5 72.501s12.833 24.5 25.5 24.5c6 0 10.833 -2.66699 14.5 -8s6.5 -12.5 8.5 -21.5s3.33301 -19.333 4 -31s1 -23.834 1 -36.501h-62zM242.002 528.003c8.66699 0 17 1.83203 25 5.49902s15.167 8.5 21.5 14.5s11.5 13 15.5 21s6 16.333 6 25
c0 20 -7 37 -21 51s-29.667 21 -47 21c-18.667 0 -34.667 -7 -48 -21s-20 -31 -20 -51c0 -17.333 6.66699 -32.666 20 -45.999s29.333 -20 48 -20zM87.002 528.002c8.66699 0 17 1.83203 25 5.49902s15.167 8.5 21.5 14.5s11.5 13 15.5 21s6 16.333 6 25c0 20 -7 37 -21 51
s-29.667 21 -47 21c-18.667 0 -34.667 -7 -48 -21s-20 -31 -20 -51c0 -17.333 6.66699 -32.666 20 -45.999s29.333 -20 48 -20z" />
    <glyph glyph-name="igrave" unicode="&#xec;" horiz-adv-x="196" 
d="M36 0h125v476h-125v-476zM47 519h110l-43 186h-139z" />
    <glyph glyph-name="iacute" unicode="&#xed;" horiz-adv-x="196" 
d="M36 0h125v476h-125v-476zM39 519h109l73 186h-139z" />
    <glyph glyph-name="icircumflex" unicode="&#xee;" horiz-adv-x="196" 
d="M36 0h125v476h-125v-476zM-36 519h90l45 51l45 -51h88l-113 206h-42z" />
    <glyph glyph-name="idieresis" unicode="&#xef;" horiz-adv-x="196" 
d="M36 0h125v476h-125v-476zM176 528c8.66699 0 17 1.83203 25 5.49902s15.167 8.5 21.5 14.5s11.5 13 15.5 21s6 16.333 6 25c0 20 -7 37 -21 51s-29.667 21 -47 21c-18.667 0 -34.667 -7 -48 -21s-20 -31 -20 -51c0 -17.333 6.66699 -32.666 20 -45.999s29.333 -20 48 -20
zM21 527.999c8.66699 0 17 1.83203 25 5.49902s15.167 8.5 21.5 14.5s11.5 13 15.5 21s6 16.333 6 25c0 20 -7 37 -21 51s-29.667 21 -47 21c-18.667 0 -34.667 -7 -48 -21s-20 -31 -20 -51c0 -17.333 6.66699 -32.666 20 -45.999s29.333 -20 48 -20z" />
    <glyph glyph-name="eth" unicode="&#xf0;" horiz-adv-x="359" 
d="M201 492c6 -19.333 10.833 -37.3311 14.5 -53.998s6.16699 -31 7.5 -43c-7.33301 16.667 -17.166 30.667 -29.499 42s-28.833 17 -49.5 17c-15.333 0 -30.5 -3.83301 -45.5 -11.5s-28.667 -20.334 -41 -38.001s-22.333 -40.667 -30 -69s-11.5 -62.833 -11.5 -103.5
c0 -42 4.5 -78.167 13.5 -108.5s21.333 -55 37 -74s33.5 -33 53.5 -42s41 -13.5 63 -13.5s42.667 5.5 62 16.5s36.166 28 50.499 51s25.666 51.833 33.999 86.5s12.5 76 12.5 124c0 44.667 -2.16699 87 -6.5 127s-10.166 78 -17.499 114l42 8v89l-66 -12
c-8 22 -16.5 42.167 -25.5 60.5s-18.833 34.166 -29.5 47.499l-113 -54c7.33301 -10.667 14.5 -22.5 21.5 -35.5s13.833 -26.833 20.5 -41.5l-37 -7v-89zM178 105.002c-8 0 -14.333 3.5 -19 10.5s-8.16699 16.167 -10.5 27.5s-4 24.166 -5 38.499s-1.5 28.5 -1.5 42.5
s0.5 28.167 1.5 42.5s2.66699 27.166 5 38.499s5.83301 20.5 10.5 27.5s11 10.5 19 10.5s14.333 -3.5 19 -10.5s8.5 -16.167 11.5 -27.5s5 -24.166 6 -38.499s1.5 -28.5 1.5 -42.5s-0.5 -28.167 -1.5 -42.5s-3 -27.166 -6 -38.499s-6.83301 -20.5 -11.5 -27.5
s-11 -10.5 -19 -10.5z" />
    <glyph glyph-name="ntilde" unicode="&#xf1;" horiz-adv-x="370" 
d="M154 445l-1.99902 31h-119v-476h125v346c5.33301 2 10.833 3.66699 16.5 5s12.167 2 19.5 2c9.33301 0 15.166 -4.5 17.499 -13.5s3.5 -25.167 3.5 -48.5v-291h125v291c0 66 -7.83301 113.333 -23.5 142s-43.5 43 -83.5 43c-11.333 0 -24.833 -3.33301 -40.5 -10
s-28.5 -13.667 -38.5 -21zM31.001 542l97.002 -21.002c3.33301 18.667 6.66602 30.5 9.99902 35.5s8.33301 7.5 15 7.5c4 0 8.83301 -2.16699 14.5 -6.5s12.167 -9 19.5 -14s15.5 -9.5 24.5 -13.5s18.833 -6 29.5 -6c20.667 0 39.5 11.333 56.5 34s30.833 62.667 41.5 120
l-98 19c-4 -18.667 -7.66699 -30.667 -11 -36s-8.66602 -8 -15.999 -8c-4 0 -8.66699 2 -14 6l-18.5 13.5c-7 5 -14.833 9.5 -23.5 13.5s-18.334 6 -29.001 6c-8.66699 0 -17.667 -2.33301 -27 -7s-18.333 -12.667 -27 -24s-16.834 -26.666 -24.501 -45.999
s-14.167 -43.666 -19.5 -72.999z" />
    <glyph glyph-name="ograve" unicode="&#xf2;" 
d="M180 -6c22 0 42.833 4.66699 62.5 14s37 24 52 44s27 45.333 36 76s13.5 67 13.5 109c0 42.667 -4.5 79.334 -13.5 110.001s-21 56 -36 76s-32.333 34.833 -52 44.5s-40.5 14.5 -62.5 14.5s-42.667 -4.83301 -62 -14.5s-36.5 -24.5 -51.5 -44.5
s-26.833 -45.333 -35.5 -76s-13 -67.334 -13 -110.001c0 -42 4.33301 -78.333 13 -109s20.5 -56 35.5 -76s32.167 -34.667 51.5 -44s40 -14 62 -14zM180 110c-8 0 -14.333 3.66699 -19 11s-8.16699 16.833 -10.5 28.5s-4 24.834 -5 39.501s-1.5 29.667 -1.5 45
c0 14.667 0.5 29.5 1.5 44.5s2.66699 28.333 5 40s5.83301 21.167 10.5 28.5s11 11 19 11s14.333 -3.66699 19 -11s8.5 -16.833 11.5 -28.5s5 -25 6 -40s1.5 -29.833 1.5 -44.5c0 -15.333 -0.5 -30.333 -1.5 -45s-3 -27.834 -6 -39.501s-6.83301 -21.167 -11.5 -28.5
s-11 -11 -19 -11zM138 519h110l-43 186h-139z" />
    <glyph glyph-name="oacute" unicode="&#xf3;" 
d="M180 -6c22 0 42.833 4.66699 62.5 14s37 24 52 44s27 45.333 36 76s13.5 67 13.5 109c0 42.667 -4.5 79.334 -13.5 110.001s-21 56 -36 76s-32.333 34.833 -52 44.5s-40.5 14.5 -62.5 14.5s-42.667 -4.83301 -62 -14.5s-36.5 -24.5 -51.5 -44.5
s-26.833 -45.333 -35.5 -76s-13 -67.334 -13 -110.001c0 -42 4.33301 -78.333 13 -109s20.5 -56 35.5 -76s32.167 -34.667 51.5 -44s40 -14 62 -14zM180 110c-8 0 -14.333 3.66699 -19 11s-8.16699 16.833 -10.5 28.5s-4 24.834 -5 39.501s-1.5 29.667 -1.5 45
c0 14.667 0.5 29.5 1.5 44.5s2.66699 28.333 5 40s5.83301 21.167 10.5 28.5s11 11 19 11s14.333 -3.66699 19 -11s8.5 -16.833 11.5 -28.5s5 -25 6 -40s1.5 -29.833 1.5 -44.5c0 -15.333 -0.5 -30.333 -1.5 -45s-3 -27.834 -6 -39.501s-6.83301 -21.167 -11.5 -28.5
s-11 -11 -19 -11zM110 519h109l73 186h-139z" />
    <glyph glyph-name="ocircumflex" unicode="&#xf4;" 
d="M180 -6c22 0 42.833 4.66699 62.5 14s37 24 52 44s27 45.333 36 76s13.5 67 13.5 109c0 42.667 -4.5 79.334 -13.5 110.001s-21 56 -36 76s-32.333 34.833 -52 44.5s-40.5 14.5 -62.5 14.5s-42.667 -4.83301 -62 -14.5s-36.5 -24.5 -51.5 -44.5
s-26.833 -45.333 -35.5 -76s-13 -67.334 -13 -110.001c0 -42 4.33301 -78.333 13 -109s20.5 -56 35.5 -76s32.167 -34.667 51.5 -44s40 -14 62 -14zM180 110c-8 0 -14.333 3.66699 -19 11s-8.16699 16.833 -10.5 28.5s-4 24.834 -5 39.501s-1.5 29.667 -1.5 45
c0 14.667 0.5 29.5 1.5 44.5s2.66699 28.333 5 40s5.83301 21.167 10.5 28.5s11 11 19 11s14.333 -3.66699 19 -11s8.5 -16.833 11.5 -28.5s5 -25 6 -40s1.5 -29.833 1.5 -44.5c0 -15.333 -0.5 -30.333 -1.5 -45s-3 -27.834 -6 -39.501s-6.83301 -21.167 -11.5 -28.5
s-11 -11 -19 -11zM46 519h90l45 51l45 -51h88l-113 206h-42z" />
    <glyph glyph-name="otilde" unicode="&#xf5;" 
d="M180 -6c22 0 42.833 4.66699 62.5 14s37 24 52 44s27 45.333 36 76s13.5 67 13.5 109c0 42.667 -4.5 79.334 -13.5 110.001s-21 56 -36 76s-32.333 34.833 -52 44.5s-40.5 14.5 -62.5 14.5s-42.667 -4.83301 -62 -14.5s-36.5 -24.5 -51.5 -44.5
s-26.833 -45.333 -35.5 -76s-13 -67.334 -13 -110.001c0 -42 4.33301 -78.333 13 -109s20.5 -56 35.5 -76s32.167 -34.667 51.5 -44s40 -14 62 -14zM180 110c-8 0 -14.333 3.66699 -19 11s-8.16699 16.833 -10.5 28.5s-4 24.834 -5 39.501s-1.5 29.667 -1.5 45
c0 14.667 0.5 29.5 1.5 44.5s2.66699 28.333 5 40s5.83301 21.167 10.5 28.5s11 11 19 11s14.333 -3.66699 19 -11s8.5 -16.833 11.5 -28.5s5 -25 6 -40s1.5 -29.833 1.5 -44.5c0 -15.333 -0.5 -30.333 -1.5 -45s-3 -27.834 -6 -39.501s-6.83301 -21.167 -11.5 -28.5
s-11 -11 -19 -11zM25 542l97.002 -21.002c3.33301 18.667 6.66602 30.5 9.99902 35.5s8.33301 7.5 15 7.5c4 0 8.83301 -2.16699 14.5 -6.5s12.167 -9 19.5 -14s15.5 -9.5 24.5 -13.5s18.833 -6 29.5 -6c20.667 0 39.5 11.333 56.5 34s30.833 62.667 41.5 120l-98 19
c-4 -18.667 -7.66699 -30.667 -11 -36s-8.66602 -8 -15.999 -8c-4 0 -8.66699 2 -14 6l-18.5 13.5c-7 5 -14.833 9.5 -23.5 13.5s-18.334 6 -29.001 6c-8.66699 0 -17.667 -2.33301 -27 -7s-18.333 -12.667 -27 -24s-16.834 -26.666 -24.501 -45.999
s-14.167 -43.666 -19.5 -72.999z" />
    <glyph glyph-name="odieresis" unicode="&#xf6;" 
d="M180 -6c22 0 42.833 4.66699 62.5 14s37 24 52 44s27 45.333 36 76s13.5 67 13.5 109c0 42.667 -4.5 79.334 -13.5 110.001s-21 56 -36 76s-32.333 34.833 -52 44.5s-40.5 14.5 -62.5 14.5s-42.667 -4.83301 -62 -14.5s-36.5 -24.5 -51.5 -44.5
s-26.833 -45.333 -35.5 -76s-13 -67.334 -13 -110.001c0 -42 4.33301 -78.333 13 -109s20.5 -56 35.5 -76s32.167 -34.667 51.5 -44s40 -14 62 -14zM180 110c-8 0 -14.333 3.66699 -19 11s-8.16699 16.833 -10.5 28.5s-4 24.834 -5 39.501s-1.5 29.667 -1.5 45
c0 14.667 0.5 29.5 1.5 44.5s2.66699 28.333 5 40s5.83301 21.167 10.5 28.5s11 11 19 11s14.333 -3.66699 19 -11s8.5 -16.833 11.5 -28.5s5 -25 6 -40s1.5 -29.833 1.5 -44.5c0 -15.333 -0.5 -30.333 -1.5 -45s-3 -27.834 -6 -39.501s-6.83301 -21.167 -11.5 -28.5
s-11 -11 -19 -11zM258 528c8.66699 0 17 1.83203 25 5.49902s15.167 8.5 21.5 14.5s11.5 13 15.5 21s6 16.333 6 25c0 20 -7 37 -21 51s-29.667 21 -47 21c-18.667 0 -34.667 -7 -48 -21s-20 -31 -20 -51c0 -17.333 6.66699 -32.666 20 -45.999s29.333 -20 48 -20z
M103 527.999c8.66699 0 17 1.83203 25 5.49902s15.167 8.5 21.5 14.5s11.5 13 15.5 21s6 16.333 6 25c0 20 -7 37 -21 51s-29.667 21 -47 21c-18.667 0 -34.667 -7 -48 -21s-20 -31 -20 -51c0 -17.333 6.66699 -32.666 20 -45.999s29.333 -20 48 -20z" />
    <glyph glyph-name="divide" unicode="&#xf7;" horiz-adv-x="383" 
d="M190 424c20 0 36.667 6.66699 50 20s20 30.666 20 51.999c0 20 -6.66699 36.667 -20 50s-30 20 -50 20c-19.333 0 -35.5 -6.66699 -48.5 -20s-19.5 -30 -19.5 -50c0 -21.333 6.5 -38.666 19.5 -51.999s29.167 -20 48.5 -20zM37 273h309v117h-309v-117zM190 96
c20 0 36.667 6.66699 50 20s20 30.666 20 51.999c0 19.333 -6.66699 35.833 -20 49.5s-30 20.5 -50 20.5c-19.333 0 -35.5 -6.83301 -48.5 -20.5s-19.5 -30.167 -19.5 -49.5c0 -21.333 6.5 -38.666 19.5 -51.999s29.167 -20 48.5 -20z" />
    <glyph glyph-name="oslash" unicode="&#xf8;" 
d="M290 429l39.001 103h-64l-24 -63c-18 8.66699 -38.333 13 -61 13c-22 0 -42.667 -4.83301 -62 -14.5s-36.5 -24.5 -51.5 -44.5s-26.833 -45.333 -35.5 -76s-13 -67.334 -13 -110.001c0 -47.333 5.33301 -87.333 16 -120s25 -58.667 43 -78l-36 -94h66l22 58
c16 -6 33 -9 51 -9c22 0 42.833 4.66699 62.5 14s37 24 52 44s27 45.333 36 76s13.5 67 13.5 109c0 44.667 -4.83301 82.834 -14.5 114.501s-22.834 57.5 -39.501 77.5zM141.001 208v26.001c0 15.333 0.5 30.666 1.5 45.999s3 29 6 41s7 21.667 12 29s11.5 11 19.5 11
c6 0 11.667 -2.66699 17 -8zM221.001 246.001l0.000976562 -12.001c0 -15.333 -0.666992 -30.666 -2 -45.999s-3.5 -29 -6.5 -41s-7.16699 -21.667 -12.5 -29s-12 -11 -20 -11c-4.66699 0 -8.33398 1 -11.001 3z" />
    <glyph glyph-name="ugrave" unicode="&#xf9;" horiz-adv-x="370" 
d="M213 124c-5.33301 -2 -10.834 -3.66699 -16.501 -5s-12.167 -2 -19.5 -2c-9.33301 0 -15.166 4.5 -17.499 13.5s-3.5 25.167 -3.5 48.5v297h-125v-297c0 -66 7.83301 -113.333 23.5 -142s43.5 -43 83.5 -43c11.333 0 24.833 3.33301 40.5 10s28.5 13.667 38.5 21l2 -25
h119v476h-125v-352zM143.999 519h110l-43 186h-139z" />
    <glyph glyph-name="uacute" unicode="&#xfa;" horiz-adv-x="370" 
d="M213 124c-5.33301 -2 -10.834 -3.66699 -16.501 -5s-12.167 -2 -19.5 -2c-9.33301 0 -15.166 4.5 -17.499 13.5s-3.5 25.167 -3.5 48.5v297h-125v-297c0 -66 7.83301 -113.333 23.5 -142s43.5 -43 83.5 -43c11.333 0 24.833 3.33301 40.5 10s28.5 13.667 38.5 21l2 -25
h119v476h-125v-352zM115.999 519h109l73 186h-139z" />
    <glyph glyph-name="ucircumflex" unicode="&#xfb;" horiz-adv-x="370" 
d="M213 124c-5.33301 -2 -10.834 -3.66699 -16.501 -5s-12.167 -2 -19.5 -2c-9.33301 0 -15.166 4.5 -17.499 13.5s-3.5 25.167 -3.5 48.5v297h-125v-297c0 -66 7.83301 -113.333 23.5 -142s43.5 -43 83.5 -43c11.333 0 24.833 3.33301 40.5 10s28.5 13.667 38.5 21l2 -25
h119v476h-125v-352zM50.999 519h90l45 51l45 -51h88l-113 206h-42z" />
    <glyph glyph-name="udieresis" unicode="&#xfc;" horiz-adv-x="370" 
d="M213 124c-5.33301 -2 -10.834 -3.66699 -16.501 -5s-12.167 -2 -19.5 -2c-9.33301 0 -15.166 4.5 -17.499 13.5s-3.5 25.167 -3.5 48.5v297h-125v-297c0 -66 7.83301 -113.333 23.5 -142s43.5 -43 83.5 -43c11.333 0 24.833 3.33301 40.5 10s28.5 13.667 38.5 21l2 -25
h119v476h-125v-352zM262.999 528c8.66699 0 17 1.83203 25 5.49902s15.167 8.5 21.5 14.5s11.5 13 15.5 21s6 16.333 6 25c0 20 -7 37 -21 51s-29.667 21 -47 21c-18.667 0 -34.667 -7 -48 -21s-20 -31 -20 -51c0 -17.333 6.66699 -32.666 20 -45.999s29.333 -20 48 -20z
M107.999 527.999c8.66699 0 17 1.83203 25 5.49902s15.167 8.5 21.5 14.5s11.5 13 15.5 21s6 16.333 6 25c0 20 -7 37 -21 51s-29.667 21 -47 21c-18.667 0 -34.667 -7 -48 -21s-20 -31 -20 -51c0 -17.333 6.66699 -32.666 20 -45.999s29.333 -20 48 -20z" />
    <glyph glyph-name="yacute" unicode="&#xfd;" horiz-adv-x="301" 
d="M99 -2l-38 -171h109l140 649h-106l-48 -219l-46 219h-119zM92 519h109l73 186h-139z" />
    <glyph glyph-name="thorn" unicode="&#xfe;" horiz-adv-x="363" 
d="M158 14c9.33301 -7.33301 18.832 -12.5 28.499 -15.5s21.5 -4.5 35.5 -4.5c22 0 40.833 6 56.5 18s28.667 28.667 39 50s18 46.833 23 76.5s7.5 62.167 7.5 97.5s-2.5 67.833 -7.5 97.5s-12.667 55 -23 76s-23.333 37.333 -39 49s-34.5 17.5 -56.5 17.5
c-11.333 0 -22.666 -2.83301 -33.999 -8.5s-21.333 -12.167 -30 -19.5v257h-125v-878h125v187zM157.999 346c8.66699 5.33301 17.002 7.99902 25.002 7.99902c9.33301 0 16.666 -3.33301 21.999 -10s9.16602 -15.5 11.499 -26.5s3.83301 -24 4.5 -39s1 -30.833 1 -47.5
c0 -17.333 -0.5 -33.5 -1.5 -48.5s-2.83301 -28 -5.5 -39s-6.66699 -19.667 -12 -26s-12 -9.5 -20 -9.5c-5.33301 0 -10 0.333008 -14 1s-7.66699 1.33398 -11 2.00098v235z" />
    <glyph glyph-name="ydieresis" unicode="&#xff;" horiz-adv-x="301" 
d="M99 -2l-38 -171h109l140 649h-106l-48 -219l-46 219h-119zM239 528c8.66699 0 17 1.83203 25 5.49902s15.167 8.5 21.5 14.5s11.5 13 15.5 21s6 16.333 6 25c0 20 -7 37 -21 51s-29.667 21 -47 21c-18.667 0 -34.667 -7 -48 -21s-20 -31 -20 -51
c0 -17.333 6.66699 -32.666 20 -45.999s29.333 -20 48 -20zM84 527.999c8.66699 0 17 1.83203 25 5.49902s15.167 8.5 21.5 14.5s11.5 13 15.5 21s6 16.333 6 25c0 20 -7 37 -21 51s-29.667 21 -47 21c-18.667 0 -34.667 -7 -48 -21s-20 -31 -20 -51
c0 -17.333 6.66699 -32.666 20 -45.999s29.333 -20 48 -20z" />
    <glyph glyph-name="dotlessi" unicode="&#x131;" horiz-adv-x="196" 
d="M36 0h125v476h-125v-476z" />
    <glyph glyph-name="Lslash" unicode="&#x141;" horiz-adv-x="349" 
d="M41 262v-262h299v120h-167v200l72 31v117l-72 -31v268h-132v-326l-31 -13v-117z" />
    <glyph glyph-name="lslash" unicode="&#x142;" horiz-adv-x="195" 
d="M36 250v-250h125v305l33 14v137l-33 -14v263h-125v-318l-29 -12v-137z" />
    <glyph glyph-name="OE" unicode="&#x152;" horiz-adv-x="579" 
d="M348 0l212 0.000976562v120h-173v173h126v126h-126v160h167v126h-206c-47.333 0 -90.833 -6 -130.5 -18s-74 -31.833 -103 -59.5s-51.5 -64 -67.5 -109s-24 -100.5 -24 -166.5s8 -121.333 24 -166s38.5 -80.834 67.5 -108.501s63.333 -47.5 103 -59.5
s83.167 -18 130.5 -18zM261 136.001c-37.333 3.33301 -64 23.668 -80 61.001s-24 87.666 -24 150.999s8 114 24 152s42.667 58.667 80 62v-426z" />
    <glyph glyph-name="oe" unicode="&#x153;" horiz-adv-x="535" 
d="M281 46c25.333 -34.667 62.3301 -51.998 110.997 -51.998c22.667 0 44.5 3 65.5 9s37.5 12.667 49.5 20l-29 99c-9.33301 -4 -21.166 -7.83301 -35.499 -11.5s-27.833 -5.5 -40.5 -5.5c-17.333 0 -30.833 6.66699 -40.5 20s-16.167 32.666 -19.5 57.999h172
c0 53.333 -2.5 99 -7.5 137s-13 69 -24 93s-25.333 41.5 -43 52.5s-39.167 16.5 -64.5 16.5c-19.333 0 -37 -4.33301 -53 -13s-30 -22 -42 -40c-23.333 35.333 -56.666 53 -99.999 53c-22 0 -42.667 -4.83301 -62 -14.5s-36.5 -24.5 -51.5 -44.5s-26.833 -45.333 -35.5 -76
s-13 -67.334 -13 -110.001c0 -42 4.33301 -78.333 13 -109s20.5 -56 35.5 -76s32.167 -34.667 51.5 -44s40 -14 62 -14c42.667 0 76.334 17.333 101.001 52zM338.997 275.002c0.666992 32 3 56.168 7 72.501s12.333 24.5 25 24.5c6 0 10.833 -2.66699 14.5 -8
s6.5 -12.5 8.5 -21.5s3.33301 -19.333 4 -31s1 -23.834 1 -36.501h-60zM179.997 110.003c-8 0 -14.333 3.66699 -19 11s-8.16699 16.833 -10.5 28.5s-4 24.834 -5 39.501s-1.5 29.667 -1.5 45c0 14.667 0.5 29.5 1.5 44.5s2.66699 28.333 5 40s5.83301 21.167 10.5 28.5
s11 11 19 11s14.333 -3.66699 19 -11s8.5 -16.833 11.5 -28.5s5 -25 6 -40s1.5 -29.833 1.5 -44.5c0 -15.333 -0.5 -30.333 -1.5 -45s-3 -27.834 -6 -39.501s-6.83301 -21.167 -11.5 -28.5s-11 -11 -19 -11z" />
    <glyph glyph-name="Scaron" unicode="&#x160;" horiz-adv-x="366" 
d="M161 -5c58.667 0 104.833 13.999 138.5 41.999s50.5 70.667 50.5 128c0 25.333 -4.83301 50.333 -14.5 75s-21.667 48.5 -36 71.5s-30 45.167 -47 66.5l-47 61c-14.333 19.333 -26.333 37.333 -36 54s-14.5 32.334 -14.5 47.001s4.5 25.667 13.5 33s21.167 11 36.5 11
c11.333 0 24 -1.33301 38 -4s27 -6.33398 39 -11.001l39 117c-10.667 5.33301 -27 10.833 -49 16.5s-46 8.5 -72 8.5c-21.333 0 -42.333 -2.5 -63 -7.5s-39.5 -14 -56.5 -27s-30.667 -30.5 -41 -52.5s-15.5 -50 -15.5 -84c0 -26.667 4.83301 -52.167 14.5 -76.5
s21.5 -48 35.5 -71s29.5 -44.833 46.5 -65.5s32.5 -40.5 46.5 -59.5s25.833 -37.167 35.5 -54.5s14.5 -33.333 14.5 -48c0 -15.333 -4.83301 -27.5 -14.5 -36.5s-24.167 -13.5 -43.5 -13.5s-39.833 3 -61.5 9s-38.5 12 -50.5 18l-40 -111
c21.333 -11.333 45.333 -20.166 72 -26.499s54 -9.5 82 -9.5zM160.999 731.999h42l113 206h-90l-45 -51l-45 51h-88z" />
    <glyph glyph-name="scaron" unicode="&#x161;" horiz-adv-x="289" 
d="M134 -6c48 0 84.002 10.999 108.002 32.999s36 52.667 36 92c0 28 -7 53.667 -21 77s-29.167 44.333 -45.5 63s-31.5 35 -45.5 49s-21 26 -21 36c0 7.33301 2.33301 12.833 7 16.5s13.667 5.5 27 5.5c8 0 17.167 -1 27.5 -3s19.166 -4.66699 26.499 -8l30 111
c-16 5.33301 -31.667 9.33301 -47 12s-30.333 4 -45 4c-43.333 0 -78.5 -11 -105.5 -33s-40.5 -55.667 -40.5 -101c0 -28 7 -53.667 21 -77s29.167 -44.166 45.5 -62.499l45.5 -49c14 -14.333 21 -26.833 21 -37.5c0 -15.333 -9.66699 -23 -29 -23
c-22.667 0 -50.334 7.33301 -83.001 22l-38 -99c19.333 -8.66699 39.333 -15.5 60 -20.5s42.667 -7.5 66 -7.5zM124.002 516.999h42l113 206h-90l-45 -51l-45 51h-88z" />
    <glyph glyph-name="Ydieresis" unicode="&#x178;" horiz-adv-x="406" 
d="M138 250v-250h131v253l143 452h-120l-80 -271l-80 271h-138zM286 743c8.66699 0 17 1.83203 25 5.49902s15.167 8.5 21.5 14.5s11.5 13 15.5 21s6 16.333 6 25c0 20 -7 37 -21 51s-29.667 21 -47 21c-18.667 0 -34.667 -7 -48 -21s-20 -31 -20 -51
c0 -17.333 6.66699 -32.666 20 -45.999s29.333 -20 48 -20zM131 742.999c8.66699 0 17 1.83203 25 5.49902s15.167 8.5 21.5 14.5s11.5 13 15.5 21s6 16.333 6 25c0 20 -7 37 -21 51s-29.667 21 -47 21c-18.667 0 -34.667 -7 -48 -21s-20 -31 -20 -51
c0 -17.333 6.66699 -32.666 20 -45.999s29.333 -20 48 -20z" />
    <glyph glyph-name="Zcaron" unicode="&#x17d;" horiz-adv-x="372" 
d="M8 0h351v120h-186l186 539v46h-328v-126h159l-182 -532v-47zM171 732h42l113 206h-90l-45 -51l-45 51h-88z" />
    <glyph glyph-name="zcaron" unicode="&#x17e;" horiz-adv-x="293" 
d="M7 0h281v109h-122l115 338v29h-256v-116h96l-114 -333v-27zM127 517h42l113 206h-90l-45 -51l-45 51h-88z" />
    <glyph glyph-name="florin" unicode="&#x192;" horiz-adv-x="371" 
d="M69 273l-45.9971 -446.001h130l45 446h80v119h-68l8 78c2 20.667 4.5 37.334 7.5 50.001s6.66699 22.5 11 29.5s9.5 11.5 15.5 13.5s13 3 21 3c6 0 12 -0.666992 18 -2s12.667 -3 20 -5l37 124c-10.667 5.33301 -23.834 10.333 -39.501 15s-33.167 7 -52.5 7
c-18 0 -35.833 -3 -53.5 -9s-33.834 -16.167 -48.501 -30.5s-27.334 -33.833 -38.001 -58.5s-18 -55.667 -22 -93l-13 -122h-73v-119h61z" />
    <glyph glyph-name="circumflex" unicode="&#x2c6;" horiz-adv-x="368" 
d="M50 519h90l45 51l45 -51h88l-113 206h-42z" />
    <glyph glyph-name="caron" unicode="&#x2c7;" horiz-adv-x="368" 
d="M164 517h42l113 206h-90l-45 -51l-45 51h-88z" />
    <glyph glyph-name="breve" unicode="&#x2d8;" horiz-adv-x="367" 
d="M185 517c25.333 0 46.333 5.5 63 16.5s30 25.333 40 43s17.167 37.667 21.5 60s6.5 44.5 6.5 66.5h-100c0 -30 -2.16699 -53.333 -6.5 -70s-12.5 -25 -24.5 -25c-11.333 0 -19.5 8.33301 -24.5 25s-7.5 40 -7.5 70h-100c0 -22 2.16699 -44.167 6.5 -66.5
s11.5 -42.333 21.5 -60s23.5 -32 40.5 -43s38.167 -16.5 63.5 -16.5z" />
    <glyph glyph-name="dotaccent" unicode="&#x2d9;" horiz-adv-x="367" 
d="M184 510c10 0 19.833 2.16699 29.5 6.5s18.167 10 25.5 17s13.333 15.333 18 25s7 19.5 7 29.5c0 12 -2.33301 23 -7 33s-10.667 18.833 -18 26.5s-15.833 13.667 -25.5 18s-19.5 6.5 -29.5 6.5c-22 0 -40.833 -8.16699 -56.5 -24.5s-23.5 -36.166 -23.5 -59.499
c0 -20.667 7.83301 -38.834 23.5 -54.501s34.5 -23.5 56.5 -23.5z" />
    <glyph glyph-name="ring" unicode="&#x2da;" horiz-adv-x="368" 
d="M185 517c10 0 20.501 2.5 31.501 7.5s21 12.333 30 22s16.333 21.834 22 36.501s8.5 31.667 8.5 51c0 20 -2.83301 37.333 -8.5 52s-13 27 -22 37s-18.833 17.5 -29.5 22.5s-21.334 7.5 -32.001 7.5c-10 0 -20.5 -2.5 -31.5 -7.5s-21 -12.5 -30 -22.5
s-16.5 -22.333 -22.5 -37s-9 -32 -9 -52c0 -19.333 3 -36.333 9 -51s13.5 -26.834 22.5 -36.501s19 -17 30 -22s21.5 -7.5 31.5 -7.5zM185.001 587c-8 0 -15.833 3.66699 -23.5 11s-11.5 19.333 -11.5 36c0 17.333 3.83301 30 11.5 38s15.5 12 23.5 12s15.667 -4 23 -12
s11 -20.667 11 -38c0 -16.667 -3.66699 -28.667 -11 -36s-15 -11 -23 -11z" />
    <glyph glyph-name="ogonek" unicode="&#x2db;" horiz-adv-x="368" 
d="M124 -153h131l-58 166h-99z" />
    <glyph glyph-name="tilde" unicode="&#x2dc;" horiz-adv-x="368" 
d="M30 542l97.002 -21.002c3.33301 18.667 6.66602 30.5 9.99902 35.5s8.33301 7.5 15 7.5c4 0 8.83301 -2.16699 14.5 -6.5s12.167 -9 19.5 -14s15.5 -9.5 24.5 -13.5s18.833 -6 29.5 -6c20.667 0 39.5 11.333 56.5 34s30.833 62.667 41.5 120l-98 19
c-4 -18.667 -7.66699 -30.667 -11 -36s-8.66602 -8 -15.999 -8c-4 0 -8.66699 2 -14 6l-18.5 13.5c-7 5 -14.833 9.5 -23.5 13.5s-18.334 6 -29.001 6c-8.66699 0 -17.667 -2.33301 -27 -7s-18.333 -12.667 -27 -24s-16.834 -26.666 -24.501 -45.999
s-14.167 -43.666 -19.5 -72.999z" />
    <glyph glyph-name="hungarumlaut" unicode="&#x2dd;" horiz-adv-x="366" 
d="M163 519h90l81 170h-109zM32 519h91l81 170h-109z" />
    <glyph glyph-name="pi" unicode="&#x3c0;" horiz-adv-x="477" 
d="M239 -7c27.333 0 54 7.66699 80 23s49.167 38 69.5 68s36.666 67.5 48.999 112.5s18.5 97.5 18.5 157.5s-6.16699 112.5 -18.5 157.5s-28.666 82.5 -48.999 112.5s-43.5 52.667 -69.5 68s-52.667 23 -80 23s-54 -7.66699 -80 -23s-49.167 -38 -69.5 -68
s-36.666 -67.5 -48.999 -112.5s-18.5 -97.5 -18.5 -157.5s6.16699 -112.5 18.5 -157.5s28.666 -82.5 48.999 -112.5s43.5 -52.667 69.5 -68s52.667 -23 80 -23zM239 57c-24 0 -45.833 7.33301 -65.5 22s-36.5 35.167 -50.5 61.5s-25 57.666 -33 93.999
s-12 76.166 -12 119.499s4 83.166 12 119.499s19 67.666 33 93.999s30.833 46.833 50.5 61.5s41.5 22 65.5 22s45.833 -7.33301 65.5 -22s36.5 -35.167 50.5 -61.5s25 -57.666 33 -93.999s12 -76.166 12 -119.499s-4 -83.166 -12 -119.499s-19 -67.666 -33 -93.999
s-30.833 -46.833 -50.5 -61.5s-41.5 -22 -65.5 -22zM149 144h84.001v108c18 2.66699 34.833 7.66699 50.5 15s29.334 17.333 41.001 30s21 28.5 28 47.5s10.5 41.167 10.5 66.5c0 28.667 -4 53.167 -12 73.5s-19.333 37 -34 50s-32.334 22.667 -53.001 29
s-43.334 9.5 -68.001 9.5h-47v-429zM233.001 331v148.001c8.66699 -0.666992 16 -3.33398 22 -8.00098s10.667 -10.5 14 -17.5s5.83301 -14.833 7.5 -23.5s2.5 -17 2.5 -25c0 -16.667 -3.33301 -32.667 -10 -48s-18.667 -24 -36 -26z" />
    <glyph glyph-name="endash" unicode="&#x2013;" horiz-adv-x="439" 
d="M42 235h356v114h-356v-114z" />
    <glyph glyph-name="emdash" unicode="&#x2014;" horiz-adv-x="564" 
d="M42 235h480v114h-480v-114z" />
    <glyph glyph-name="quoteleft" unicode="&#x2018;" horiz-adv-x="225" 
d="M92 403h98l-27 302h-134z" />
    <glyph glyph-name="quoteright" unicode="&#x2019;" horiz-adv-x="225" 
d="M36 403h98l63 302h-134z" />
    <glyph glyph-name="quotesinglbase" unicode="&#x201a;" horiz-adv-x="225" 
d="M36 -157h98l63 302h-134z" />
    <glyph glyph-name="quotedblleft" unicode="&#x201c;" horiz-adv-x="369" 
d="M242 403h92l-27 302h-129zM92 403h92l-27 302h-128z" />
    <glyph glyph-name="quotedblright" unicode="&#x201d;" horiz-adv-x="369" 
d="M186 403h92l63 302h-128zM36 403h92l64 302h-129z" />
    <glyph glyph-name="quotedblbase" unicode="&#x201e;" horiz-adv-x="369" 
d="M186 -157h92l63 302h-128zM36 -157h92l64 302h-129z" />
    <glyph glyph-name="dagger" unicode="&#x2020;" horiz-adv-x="373" 
d="M124 444v-519h125v519h95v116h-95v221h-125v-221h-93v-116h93z" />
    <glyph glyph-name="daggerdbl" unicode="&#x2021;" horiz-adv-x="373" 
d="M124 444v-182h-93v-116h93v-221h125v221h95v116h-95v182h95v116h-95v221h-125v-221h-93v-116h93z" />
    <glyph glyph-name="bullet" unicode="&#x2022;" horiz-adv-x="281" 
d="M140 134c28 0 51.833 15.1689 71.5 45.502s29.5 78.166 29.5 143.499s-9.83301 113.166 -29.5 143.499s-43.5 45.5 -71.5 45.5c-27.333 0 -51 -15.333 -71 -46s-30 -79 -30 -145c0 -64 10 -111.167 30 -141.5s43.667 -45.5 71 -45.5z" />
    <glyph glyph-name="ellipsis" unicode="&#x2026;" horiz-adv-x="684" 
d="M558 -6c26 0 47.833 8.66699 65.5 26s26.5 40 26.5 68c0 25.333 -8.83301 46.833 -26.5 64.5s-39.5 26.5 -65.5 26.5c-12 0 -23.5 -2.33301 -34.5 -7s-20.5 -11.167 -28.5 -19.5s-14.333 -18 -19 -29s-7 -22.833 -7 -35.5c0 -28 8.66699 -50.667 26 -68
s38.333 -26 63 -26zM341 -6c26 0 47.833 8.66699 65.5 26s26.5 40 26.5 68c0 25.333 -8.83301 46.833 -26.5 64.5s-39.5 26.5 -65.5 26.5c-12 0 -23.5 -2.33301 -34.5 -7s-20.5 -11.167 -28.5 -19.5s-14.333 -18 -19 -29s-7 -22.833 -7 -35.5c0 -28 8.66699 -50.667 26 -68
s38.333 -26 63 -26zM124 -6c26 0 47.833 8.66699 65.5 26s26.5 40 26.5 68c0 25.333 -8.83301 46.833 -26.5 64.5s-39.5 26.5 -65.5 26.5c-12 0 -23.5 -2.33301 -34.5 -7s-20.5 -11.167 -28.5 -19.5s-14.333 -18 -19 -29s-7 -22.833 -7 -35.5c0 -28 8.66699 -50.667 26 -68
s38.333 -26 63 -26z" />
    <glyph glyph-name="perthousand" unicode="&#x2030;" horiz-adv-x="945" 
d="M142 259c40 0 71.167 18 93.5 54s33.5 92 33.5 168c0 76.667 -11.167 133.167 -33.5 169.5s-53.5 54.5 -93.5 54.5s-71.167 -18.167 -93.5 -54.5s-33.5 -92.833 -33.5 -169.5c0 -76 11.167 -132 33.5 -168s53.5 -54 93.5 -54zM176 0h100l222 700h-100zM803 -6
c40 0 71.167 18 93.5 54s33.5 92 33.5 168c0 76.667 -11.167 133.167 -33.5 169.5s-53.5 54.5 -93.5 54.5s-71.167 -18.167 -93.5 -54.5s-33.5 -92.833 -33.5 -169.5c0 -76 11.167 -132 33.5 -168s53.5 -54 93.5 -54zM533 -6c40 0 71.167 18 93.5 54s33.5 92 33.5 168
c0 76.667 -11.167 133.167 -33.5 169.5s-53.5 54.5 -93.5 54.5s-71.167 -18.167 -93.5 -54.5s-33.5 -92.833 -33.5 -169.5c0 -76 11.167 -132 33.5 -168s53.5 -54 93.5 -54zM142 352c-6 0 -10.833 3.66699 -14.5 11s-6.5 17 -8.5 29s-3.16699 25.667 -3.5 41
s-0.5 31 -0.5 47c0 16.667 0.166992 32.667 0.5 48s1.5 29 3.5 41s4.83301 21.667 8.5 29s8.5 11 14.5 11s10.833 -3.66699 14.5 -11s6.5 -17.166 8.5 -29.499s3.16699 -26.333 3.5 -42s0.5 -31.834 0.5 -48.501s-0.166992 -32.5 -0.5 -47.5s-1.5 -28.333 -3.5 -40
s-4.83301 -21 -8.5 -28s-8.5 -10.5 -14.5 -10.5zM803 87c-6 0 -10.833 3.66699 -14.5 11s-6.5 17 -8.5 29s-3.16699 25.667 -3.5 41s-0.5 31 -0.5 47c0 16.667 0.166992 32.667 0.5 48s1.5 29 3.5 41s4.83301 21.667 8.5 29s8.5 11 14.5 11s10.833 -3.66699 14.5 -11
s6.5 -17.166 8.5 -29.499s3.16699 -26.333 3.5 -42s0.5 -31.834 0.5 -48.501s-0.166992 -32.5 -0.5 -47.5s-1.5 -28.333 -3.5 -40s-4.83301 -21 -8.5 -28s-8.5 -10.5 -14.5 -10.5zM533 87c-6 0 -10.833 3.66699 -14.5 11s-6.5 17 -8.5 29s-3.16699 25.667 -3.5 41
s-0.5 31 -0.5 47c0 16.667 0.166992 32.667 0.5 48s1.5 29 3.5 41s4.83301 21.667 8.5 29s8.5 11 14.5 11s10.833 -3.66699 14.5 -11s6.5 -17.166 8.5 -29.499s3.16699 -26.333 3.5 -42s0.5 -31.834 0.5 -48.501s-0.166992 -32.5 -0.5 -47.5s-1.5 -28.333 -3.5 -40
s-4.83301 -21 -8.5 -28s-8.5 -10.5 -14.5 -10.5z" />
    <glyph glyph-name="guilsinglleft" unicode="&#x2039;" horiz-adv-x="259" 
d="M109 0h122l-73 238l73 238h-122l-73 -238z" />
    <glyph glyph-name="guilsinglright" unicode="&#x203a;" horiz-adv-x="259" 
d="M28 0h122l73 238l-73 238h-122l73 -238z" />
    <glyph glyph-name="fraction" unicode="&#x2044;" horiz-adv-x="347" 
d="M-10 0h125l242 700h-125z" />
    <glyph glyph-name="Euro" unicode="&#x20ac;" horiz-adv-x="421" 
d="M75 389c-0.666992 -6 -0.99707 -12.332 -0.99707 -18.999v-19v-25h-63v-93h73c8.66699 -44.667 21.667 -82.167 39 -112.5s37.166 -54.666 59.499 -72.999s46.333 -31.5 72 -39.5s51.167 -12 76.5 -12c18.667 0 36.667 2 54 6l-16 125c-11.333 -2 -21.333 -3 -30 -3
c-30.667 0 -56 9.83301 -76 29.5s-35.333 46.167 -46 79.5h111v93h-126v23c0 7.33301 0.166992 14.166 0.5 20.499s0.833008 12.833 1.5 19.5h124v91h-106c11.333 28 26.666 50.333 45.999 67s43.333 25 72 25c9.33301 0 19 -1 29 -3l16 130c-17.333 4 -35.333 6 -54 6
c-24.667 0 -49.667 -3.83301 -75 -11.5s-49 -20.167 -71 -37.5s-41.833 -40.333 -59.5 -69s-30.834 -64.334 -39.501 -107.001h-75v-91h64z" />
    <glyph glyph-name="trademark" unicode="&#x2122;" horiz-adv-x="697" 
d="M464 251h34l54 157l3 -197h103l-14 494h-63l-95 -240l-95 240h-64l-13 -494h97l4 197zM104 585v-374h117v374h81v120h-281v-120h83z" />
    <glyph glyph-name="Omega" unicode="&#x2126;" horiz-adv-x="425" 
d="M179 360l79.001 0.00292969l-47 -135v-46c10 -4.66699 20 -10.167 30 -16.5s19 -14 27 -23s14.333 -19.5 19 -31.5s7 -25.667 7 -41c0 -16.667 -2.66699 -32.334 -8 -47.001s-13.833 -27.667 -25.5 -39s-26.834 -20.5 -45.501 -27.5s-41.334 -11.5 -68.001 -13.5l7 -116
c36 1.33301 70 6.83301 102 16.5s60 24.167 84 43.5s43 43.5 57 72.5s21 63.5 21 103.5c0 28.667 -2.33301 53.167 -7 73.5s-11 37.666 -19 51.999s-17.667 26.166 -29 35.499s-23.666 18 -36.999 26l68 173v56h-215v195h-125v-195h-54v-116h54v-360h125v360z" />
    <glyph glyph-name="partialdiff" unicode="&#x2202;" horiz-adv-x="493" 
d="M194 476h-187l150 -191l-58 -300l147 187l148 -187l-59 299l152 192h-189l-52 268z" />
    <glyph glyph-name="Delta" unicode="&#x2206;" horiz-adv-x="396" 
d="M179 360l56.998 -0.00195312v-373c0 -34.667 -13.667 -52 -41 -52c-7.33301 0 -17.666 1.66699 -30.999 5l-19 -107c8 -3.33301 18 -6 30 -8s24.667 -3 38 -3c16.667 0 33.834 2.16699 51.501 6.5s33.667 12.833 48 25.5s26 30.334 35 53.001s13.5 52 13.5 88v481h-182
v33c0 24 3.5 42.5 10.5 55.5s21.167 19.5 42.5 19.5c15.333 0 29 -1.33301 41 -4s22.667 -5.66699 32 -9l32 118c-16 6 -33.833 11.167 -53.5 15.5s-43.167 6.5 -70.5 6.5c-58 0 -99 -19.167 -123 -57.5s-36 -91.166 -36 -158.499v-19h-54v-116h54v-360h125v360z" />
    <glyph glyph-name="product" unicode="&#x220f;" horiz-adv-x="493" 
d="M194 476h-187l150 -191l-58 -300l147 187l148 -187l-59 299l152 192h-189l-52 268z" />
    <glyph glyph-name="summation" unicode="&#x2211;" horiz-adv-x="493" 
d="M194 476h-187l150 -191l-58 -300l147 187l148 -187l-59 299l152 192h-189l-52 268z" />
    <glyph glyph-name="minus" unicode="&#x2212;" horiz-adv-x="383" 
d="M37 273h309v117h-309v-117z" />
    <glyph glyph-name="radical" unicode="&#x221a;" horiz-adv-x="364" 
d="M101 0h121l146 705h-109l-91 -457l-44 228h-122z" />
    <glyph glyph-name="infinity" unicode="&#x221e;" horiz-adv-x="578" 
d="M361 360l56.9971 0.000976562v-360h125v476h-182v33c0 24 3.5 42.5 10.5 55.5s21.167 19.5 42.5 19.5c14 0 27.333 -1.33301 40 -4s23.667 -5.66699 33 -9l32 118c-16 6 -33.833 11.167 -53.5 15.5s-43.167 6.5 -70.5 6.5c-51.333 0 -89.666 -15.667 -114.999 -47
c-10.667 4.66699 -23.667 8.66699 -39 12s-28.666 5 -39.999 5c-16.667 0 -33.667 -2.16699 -51 -6.5s-33.166 -12.833 -47.499 -25.5s-26 -30.334 -35 -53.001s-13.5 -52 -13.5 -88v-32h-54v-116h54v-360h125v360h57v-360h125v360zM235.997 476.001h-57v36
c0 34.667 13.333 52 40 52c6 0 13 -1 21 -3c-1.33301 -10 -2.33301 -20.5 -3 -31.5s-1 -22.5 -1 -34.5v-19z" />
    <glyph glyph-name="integral" unicode="&#x222b;" horiz-adv-x="493" 
d="M194 476h-187l150 -191l-58 -300l147 187l148 -187l-59 299l152 192h-189l-52 268z" />
    <glyph glyph-name="approxequal" unicode="&#x2248;" horiz-adv-x="493" 
d="M194 476h-187l150 -191l-58 -300l147 187l148 -187l-59 299l152 192h-189l-52 268z" />
    <glyph glyph-name="notequal" unicode="&#x2260;" horiz-adv-x="432" 
d="M361 476l-0.000976562 61.001c0 34.667 13.333 52 40 52c7.33301 0 17.666 -1.66699 30.999 -5l19 116c-8 3.33301 -18 6 -30 8s-24.667 3 -38 3c-19.333 0 -38.666 -2.83301 -57.999 -8.5s-36.666 -17.167 -51.999 -34.5c-8 3.33301 -18.833 6.33301 -32.5 9
s-26.834 4 -39.501 4c-16.667 0 -33.667 -2.16699 -51 -6.5s-33.166 -12.833 -47.499 -25.5s-26 -30.334 -35 -53.001s-13.5 -52 -13.5 -88v-32h-54v-116h54v-360h125v360h57v-360h125v360h71v116h-71zM178.999 476.001v36c0 34.667 13.333 52 40 52
c2.66699 0 5.5 -0.166992 8.5 -0.5s6.16699 -0.833008 9.5 -1.5c-0.666992 -4 -1 -8 -1 -12v-12v-62h-57z" />
    <glyph glyph-name="lessequal" unicode="&#x2264;" horiz-adv-x="366" 
d="M208 32l0.000976562 -10.999c0 -24 -3.5 -42.5 -10.5 -55.5s-21.167 -19.5 -42.5 -19.5c-15.333 0 -29 1.33301 -41 4s-22.667 5.66699 -32 9l-32 -110c16 -6 33.833 -11.167 53.5 -15.5s43.167 -6.5 70.5 -6.5c58 0 99 19.167 123 57.5s36 91.166 36 158.499v433h-119
l-2 -25c-10.667 9.33301 -21 15.833 -31 19.5s-22.333 5.5 -37 5.5c-22 0 -40.833 -5.66699 -56.5 -17s-28.667 -27.5 -39 -48.5s-18 -46 -23 -75s-7.5 -61.167 -7.5 -96.5s2.5 -67.5 7.5 -96.5s12.667 -53.833 23 -74.5s23.333 -36.5 39 -47.5s34.5 -16.5 56.5 -16.5
c11.333 0 22.666 2.83301 33.999 8.5s21.333 12.167 30 19.5zM208.001 350.001l-0.00292969 -225c-9.33301 -4.66699 -17.666 -7 -24.999 -7c-9.33301 0 -16.666 3 -21.999 9s-9.33301 14.333 -12 25s-4.16699 23.167 -4.5 37.5s-0.5 29.833 -0.5 46.5
c0 35.333 2.33301 63.833 7 85.5s15.334 32.5 32.001 32.5c5.33301 0 10 -0.333008 14 -1s7.66699 -1.66699 11 -3z" />
    <glyph glyph-name="greaterequal" unicode="&#x2265;" 
d="M204 458c-9.33301 7.33301 -18.332 12.167 -26.999 14.5s-19.667 3.5 -33 3.5c-22 0 -40.833 -6 -56.5 -18s-28.667 -28.667 -39 -50s-18 -46.833 -23 -76.5s-7.5 -62.167 -7.5 -97.5s2.5 -67.833 7.5 -97.5s12.667 -55 23 -76s23.333 -37.333 39 -49
s34.5 -17.5 56.5 -17.5c11.333 0 22.666 3 33.999 9s21.333 12.333 30 19l2 -22h119v476h-125v-18zM204.001 113.001c-3.33301 -1.33301 -6.66797 -2.5 -10.001 -3.5s-7 -1.5 -11 -1.5c-9.33301 0 -16.666 3.33301 -21.999 10s-9.33301 15.5 -12 26.5s-4.16699 24 -4.5 39
s-0.5 30.833 -0.5 47.5c0 17.333 0.5 33.5 1.5 48.5s2.83301 28 5.5 39s6.66699 19.667 12 26s12 9.5 20 9.5c8.66699 0 15.667 -1 21 -3v-238z" />
    <glyph glyph-name="lozenge" unicode="&#x25ca;" horiz-adv-x="449" 
d="M54 360l-0.00292969 -360h125v360h57v-230c0 -28 3.83301 -50.833 11.5 -68.5s17.834 -31.5 30.501 -41.5s26.667 -16.833 42 -20.5s31 -5.5 47 -5.5c11.333 0 24.333 0.666992 39 2s25.334 3 32.001 5v95l-15.5 -2c-5 -0.666992 -9.5 -1 -13.5 -1
c-10.667 0 -19.167 0.666992 -25.5 2s-11.166 4 -14.499 8s-5.5 9.33301 -6.5 16s-1.5 15 -1.5 25v216h77v116h-77v85h-125v-85h-57v66c0 18 1.5 31.167 4.5 39.5s8.83301 12.5 17.5 12.5c7.33301 0 17 -1 29 -3l19 109c-8 3.33301 -18 6 -30 8s-24.667 3 -38 3
c-16.667 0 -32.667 -2.33301 -48 -7s-28.833 -13.167 -40.5 -25.5s-21 -29.833 -28 -52.5s-10.5 -52 -10.5 -88v-62h-54v-116h54z" />
    <glyph glyph-name="apple" unicode="&#xf8ff;" horiz-adv-x="493" 
d="M194 476h-187l150 -191l-58 -300l147 187l148 -187l-59 299l152 192h-189l-52 268z" />
    <glyph glyph-name="fi" unicode="&#xfb01;" horiz-adv-x="396" 
d="M179 360l57.001 -0.000976562v-360h125v476h-182v33c0 24 3.5 42.5 10.5 55.5s21.167 19.5 42.5 19.5c12.667 0 25.667 -1.33301 39 -4s24.666 -5.66699 33.999 -9l32 118c-16 6 -34.333 11.167 -55 15.5s-43.667 6.5 -69 6.5c-58 0 -99 -19.167 -123 -57.5
s-36 -91.166 -36 -158.499v-19h-54v-116h54v-360h125v360z" />
    <glyph glyph-name="fl" unicode="&#xfb02;" horiz-adv-x="396" 
d="M236 360v-360.001h125v700h-74c-10 3.33301 -20.667 6 -32 8s-25.333 3 -42 3c-58 0 -99 -19.167 -123 -57.5s-36 -91.166 -36 -158.499v-19h-54v-116h54v-360h125v360h57zM179 475.999v38c0 24 3.5 42.5 10.5 55.5s21.167 19.5 42.5 19.5h4v-113h-57z" />
    <glyph glyph-name=".null" horiz-adv-x="0" 
 />
    <glyph glyph-name="nonmarkingreturn" horiz-adv-x="500" 
 />
    <glyph glyph-name="NUL" horiz-adv-x="0" 
 />
    </font>
</defs>
</svg>
